<svg id="Layer_1" height="512" viewBox="0 0 512 512" width="512" xmlns="http://www.w3.org/2000/svg" data-name="Layer 1"><path d="m114 374.53h112.5v27.94h-112.5z" fill="#e87187"/><path d="m226.5 374.53h112.5v27.94h-112.5z" fill="#5fcda4"/><path d="m346.5 294.53h72.5v27.94h-72.5z" fill="#5fcda4"/><path d="m274 294.53h72.5v27.94h-72.5z" fill="#e87187"/><path d="m266.5 214.53h152.5v27.94h-152.5z" fill="#5fcda4"/><path d="m114 214.53h152.5v27.94h-152.5z" fill="#e87187"/><path d="m186.5 134.53h72.5v27.94h-72.5z" fill="#5fcda4"/><path d="m114 134.53h72.5v27.94h-72.5z" fill="#e87187"/><path d="m114 375h30v27h-30z" fill="#ad5e73"/><path d="m274 295h30v27h-30z" fill="#ad5e73"/><path d="m114 215h30v27h-30z" fill="#ad5e73"/><path d="m114 135h30v27h-30z" fill="#ad5e73"/><g fill="#284268"><path d="m501 490h-34v-7a6 6 0 0 0 -12 0v7h-36v-17a6 6 0 0 0 -12 0v17h-37v-7a6 6 0 0 0 -12 0v7h-36v-17a6 6 0 0 0 -12 0v17h-36v-7a6 6 0 0 0 -12 0v7h-36v-17a6 6 0 0 0 -12 0v17h-37v-7a6 6 0 0 0 -12 0v7h-36v-17a6 6 0 0 0 -12 0v17h-36v-7a6 6 0 0 0 -12 0v7h-53v-37h7a6 6 0 0 0 0-12h-7v-36h18a6 6 0 0 0 0-12h-18v-37h7a6 6 0 0 0 0-12h-7v-36h18a6 6 0 0 0 0-12h-18v-36h7a6 6 0 0 0 0-12h-7v-36h18a6 6 0 0 0 0-12h-18v-37h7a6 6 0 0 0 0-12h-7v-36h18a6 6 0 0 0 0-12h-18v-36h7a6 6 0 0 0 0-12h-7v-38a6 6 0 0 0 -12 0v479a6 6 0 0 0 6 6h491a6 6 0 0 0 0-12z"/><path d="m65 243.966a6 6 0 0 0 6-6v-1.966h37v5.966c0 3.314 3.186 6.034 6.5 6.034h305c3.314 0 5.5-2.72 5.5-6.034v-6.966h38v2.966a6 6 0 0 0 12 0v-19.932a6 6 0 0 0 -12 0v4.966h-38v-8.966c0-3.314-2.186-6.034-5.5-6.034h-305c-3.314 0-6.5 2.72-6.5 6.034v9.966h-37v-5.966a6 6 0 0 0 -12 0v19.932a6 6 0 0 0 6 6zm208-23.966h140v16h-140zm-153 0h141v16h-141z"/><path d="m65 163.966a6 6 0 0 0 6-6v-1.966h37v5.966c0 3.314 3.186 6.034 6.5 6.034h145c3.314 0 5.5-2.72 5.5-6.034v-6.966h38v2.966a6 6 0 0 0 12 0v-19.932a6 6 0 0 0 -12 0v4.966h-38v-8.966c0-3.314-2.186-6.034-5.5-6.034h-145c-3.314 0-6.5 2.72-6.5 6.034v9.966h-37v-5.966a6 6 0 0 0 -12 0v19.932a6 6 0 0 0 6 6zm128-23.966h60v16h-60zm-73 0h61v16h-61z"/><path d="m469 323.966a6 6 0 0 0 6-6v-19.932a6 6 0 0 0 -12 0v4.966h-38v-8.966c0-3.314-2.186-6.034-5.5-6.034h-145c-3.314 0-6.5 2.72-6.5 6.034v9.966h-37v-5.966a6 6 0 0 0 -12 0v19.932a6 6 0 0 0 12 0v-1.966h37v5.966c0 3.314 3.186 6.034 6.5 6.034h145c3.314 0 5.5-2.72 5.5-6.034v-6.966h38v2.966a6 6 0 0 0 6 6zm-128-7.966h-61v-16h61zm72 0h-60v-16h60z"/><path d="m65 403.966a6 6 0 0 0 6-6v-1.966h37v5.966c0 3.314 3.186 6.034 6.5 6.034h225c3.314 0 5.5-2.72 5.5-6.034v-6.966h38v2.966a6 6 0 0 0 12 0v-19.932a6 6 0 0 0 -12 0v4.966h-38v-8.966c0-3.314-2.186-6.034-5.5-6.034h-225c-3.314 0-6.5 2.72-6.5 6.034v9.966h-37v-5.966a6 6 0 0 0 -12 0v19.932a6 6 0 0 0 6 6zm168-23.966h100v16h-100zm-113 0h101v16h-101z"/></g></svg>