<?xml version="1.0" encoding="iso-8859-1"?>
<!-- Generator: Adobe Illustrator 19.0.0, SVG Export Plug-In . SVG Version: 6.00 Build 0)  -->
<svg version="1.1" id="Layer_1" xmlns="http://www.w3.org/2000/svg" xmlns:xlink="http://www.w3.org/1999/xlink" x="0px" y="0px"
	 viewBox="0 0 512 512" style="enable-background:new 0 0 512 512;" xml:space="preserve">
<path style="fill:#FBB500;" d="M256,0C114.615,0,0,114.615,0,256s114.615,256,256,256s256-114.615,256-256S397.385,0,256,0z
	 M256,374.77c-65.595,0-118.77-53.175-118.77-118.77S190.405,137.23,256,137.23S374.77,190.405,374.77,256
	S321.595,374.77,256,374.77z"/>
<path style="fill:#FFE29E;" d="M256,374.77c-65.595,0-118.77-53.175-118.77-118.77S190.405,137.23,256,137.23l0,0V0
	C114.615,0,0,114.615,0,256s114.615,256,256,256V374.77L256,374.77z"/>
<path style="fill:#FFD67A;" d="M137.23,256c0-32.797,13.294-62.49,34.787-83.984L74.981,74.981C28.654,121.307,0,185.307,0,256
	c0,141.385,114.615,256,256,256V374.77l0,0C190.405,374.77,137.23,321.595,137.23,256z"/>
<path style="fill:#FFCE47;" d="M256,374.77c-65.595,0-118.77-53.175-118.77-118.77H0c0,141.385,114.615,256,256,256V374.77
	L256,374.77z"/>
<path style="fill:#FFC132;" d="M256,374.77c-32.797,0-62.49-13.294-83.983-34.787L74.981,437.02
	C121.307,483.347,185.307,512,256,512V374.77L256,374.77z"/>
<g>
</g>
<g>
</g>
<g>
</g>
<g>
</g>
<g>
</g>
<g>
</g>
<g>
</g>
<g>
</g>
<g>
</g>
<g>
</g>
<g>
</g>
<g>
</g>
<g>
</g>
<g>
</g>
<g>
</g>
</svg>
