<svg id="Layer_1" enable-background="new 0 0 512 512" height="512" viewBox="0 0 512 512" width="512" xmlns="http://www.w3.org/2000/svg"><g clip-rule="evenodd" fill-rule="evenodd"><path d="m51.11 15.88h416.77c17.39 0 31.62 14.23 31.62 31.62v359.89c0 17.39-14.23 31.62-31.62 31.62h-416.77c-17.39 0-31.62-14.23-31.62-31.62v-359.9c0-17.39 14.23-31.61 31.62-31.61z" fill="#fbf3f3"/><path d="m51.11 15.88h416.77c17.39 0 31.62 14.23 31.62 31.62v50.34h-179.26l-13.9-17.9h-286.85v-32.45c0-17.39 14.23-31.61 31.62-31.61z" fill="#ff5a5a"/><path d="m61.25 384h68.36v111.87h-68.36z" fill="#05e39c"/><path d="m170.63 307.77h68.36v188.11h-68.36z" fill="#f5c86e"/><path d="m280 355.98h68.36v139.89h-68.36z" fill="#2fb1d4"/><path d="m389.37 269.28h68.36v226.6h-68.36z" fill="#ff5a5a"/><path d="m95.43 334.51c14.94 0 27.12-12.18 27.12-27.12s-12.18-27.12-27.12-27.12-27.12 12.18-27.12 27.12 12.18 27.12 27.12 27.12z" fill="#05e39c"/><path d="m204.8 235.41c14.94 0 27.12-12.18 27.12-27.12s-12.18-27.12-27.12-27.12-27.12 12.18-27.12 27.12 12.19 27.12 27.12 27.12z" fill="#f5c86e"/><circle cx="314.17" cy="274.03" fill="#2fb1d4" r="27.12"/><ellipse cx="423.55" cy="171.34" fill="#ff5a5a" rx="27.12" ry="27.12" transform="matrix(.974 -.227 .227 .974 -27.845 100.67)"/><path d="m392.51 56.86c0-5.52 4.48-10 10-10s10 4.48 10 10-4.48 10-10 10-10-4.48-10-10zm-35.79 0c0-5.52 4.48-10 10-10s10 4.48 10 10-4.48 10-10 10-10-4.48-10-10zm71.58 0c0-5.52 4.48-10 10-10s10 4.48 10 10-4.48 10-10 10-10-4.48-10-10zm-295.54 129.76c-3.31 0-6-2.69-6-6s2.69-6 6-6h8.61c3.31 0 6 2.69 6 6s-2.69 6-6 6zm-77.18 0c-3.31 0-6-2.69-6-6s2.69-6 6-6h50.75c3.31 0 6 2.69 6 6s-2.69 6-6 6zm-6-37.24c0-3.31 2.69-6 6-6h179.51c3.32 0 6 2.69 6 6s-2.69 6-6 6h-179.51c-3.31 0-6-2.69-6-6zm0-31.25c0-3.31 2.69-6 6-6h178.57c3.31 0 6 2.69 6 6 0 3.32-2.69 6-6 6h-178.57c-3.31 0-6-2.68-6-6zm264.59 134.78c11.65 0 21.12 9.48 21.12 21.12s-9.48 21.12-21.12 21.12c-11.65 0-21.12-9.48-21.12-21.12 0-11.65 9.48-21.12 21.12-21.12zm109.38-102.69c11.64 0 21.12 9.47 21.12 21.12 0 11.64-9.48 21.12-21.12 21.12-11.65 0-21.12-9.48-21.12-21.12-.01-11.65 9.47-21.12 21.12-21.12zm-218.75 79.19c-11.65 0-21.12-9.48-21.12-21.12 0-11.65 9.48-21.12 21.12-21.12 11.65 0 21.12 9.48 21.12 21.12.01 11.65-9.47 21.12-21.12 21.12zm-109.37 99.1c-11.65 0-21.12-9.47-21.12-21.12 0-11.64 9.48-21.12 21.12-21.12 11.65 0 21.12 9.48 21.12 21.12.01 11.65-9.47 21.12-21.12 21.12zm140.38-108.58c1.37-3.62 2.12-7.54 2.12-11.64 0-18.27-14.86-33.12-33.12-33.12s-33.12 14.86-33.12 33.12c0 6.38 1.82 12.35 4.97 17.42l-61.12 55.38c-5.58-4.27-12.54-6.81-20.09-6.81-18.26 0-33.12 14.86-33.12 33.12 0 18.27 14.86 33.12 33.12 33.12s33.12-14.85 33.12-33.12c0-6.38-1.82-12.35-4.97-17.42l61.12-55.38c5.58 4.27 12.54 6.82 20.1 6.82 9.87 0 18.73-4.34 24.81-11.21l53.55 32.19c-1.36 3.62-2.12 7.54-2.12 11.64 0 18.26 14.86 33.12 33.12 33.12s33.12-14.86 33.12-33.12c0-6.6-1.95-12.74-5.28-17.91l61.9-58.12c5.5 4.06 12.29 6.46 19.63 6.46 18.26 0 33.12-14.86 33.12-33.12 0-18.27-14.86-33.12-33.12-33.12-18.27 0-33.12 14.85-33.12 33.12 0 6.6 1.95 12.74 5.28 17.91l-61.9 58.12c-5.5-4.06-12.29-6.46-19.63-6.46-9.87 0-18.74 4.34-24.81 11.21zm159.56 269.94v-214.6h56.36v214.6zm-328.11-99.86h56.36v99.87h-56.36zm287.09 54.99h29.01v44.88h-29.01zm-12 44.87h-56.35v-127.89h56.36v127.89zm-97.37-44.87h29.02v44.88h-29.01v-44.88zm-12 44.87h-56.36v-176.1h56.36zm-97.37-44.87h29.01v44.88h-29.01zm-84.5-12h4.15v-48.99c0-3.32 2.69-6 6-6h68.36c3.31 0 6 2.68 6 6v48.99h29.01v-125.23c0-3.31 2.69-6 6-6h68.36c3.31 0 6 2.69 6 6v125.23h29.01v-77.01c0-3.31 2.69-6 6-6h68.36c3.31 0 6 2.69 6 6v77.01h29.01v-163.72c0-3.31 2.69-6 6-6h68.36c3.31 0 6 2.69 6 6v163.72h4.15c14.13 0 25.62-11.49 25.62-25.62v-303.55h-173.26c-1.85 0-3.6-.86-4.74-2.32l-12.1-15.58h-277.91v321.45c0 14.12 11.49 25.62 25.62 25.62zm0-411.13c-14.12 0-25.62 11.49-25.62 25.62v26.43h280.85c1.85 0 3.6.86 4.74 2.32l12.1 15.59h170.31v-44.34c0-14.13-11.49-25.62-25.62-25.62zm416.76 423.13c20.74 0 37.62-16.88 37.62-37.62v-359.89c0-20.74-16.88-37.62-37.62-37.62h-416.76c-20.74 0-37.62 16.88-37.62 37.62v359.89c0 20.74 16.87 37.62 37.62 37.62h4.15v44.88h-35.77c-3.31 0-6 2.69-6 6s2.69 6 6 6h480c3.31 0 6-2.69 6-6s-2.69-6-6-6h-35.77v-44.88z" fill="#222124"/></g></svg>