<svg enable-background="new 0 0 512 512" viewBox="0 0 512 512" xmlns="http://www.w3.org/2000/svg"><g id="_x32_5_x2C__Data_Analysis_x2C__curve_x2C__analysis_x2C__business_and_finance_x2C__analytics_x2C__stats"><g><path id="XMLID_663_" d="m403.332 91.72 100.167 14.28c0 53.85-43.65 97.5-97.5 97.5-26.92 0-51.3-10.91-68.94-28.56z" fill="#f2d05c"/><path id="XMLID_664_" d="m45.999 8.5h37.5v37.5h-37.5z" fill="#7cdac3"/><path id="XMLID_665_" d="m45.999 76h37.5v37.5h-37.5z" fill="#e07058"/><path id="XMLID_666_" d="m45.999 143.5h37.5v37.5h-37.5z" fill="#f2d05c"/><path id="XMLID_667_" d="m45.999 211h37.5v37.5h-37.5z" fill="#7cdac3"/><path id="XMLID_668_" d="m503.499 106h-97.5l-9.25-44 9.25-53.5c53.85 0 97.5 43.65 97.5 97.5z" fill="#7cdac3"/><path id="XMLID_669_" d="m405.999 8.5v97.5l-68.94 68.94c-17.65-17.64-28.56-42.02-28.56-68.94 0-53.85 43.65-97.5 97.5-97.5z" fill="#e07058"/><g><path d="m503.499 496h-487.5v-63.412l27.492-75.602c3.588-9.866 12.215-12.818 19.062-12.305 6.863.52 14.93 4.744 16.988 15.037l5.945 29.725c3.095 15.475 15.766 26.37 31.529 27.112 15.748.718 29.401-8.915 33.936-24.03 3.256-10.852 12.648-13.945 19.694-13.301 7.051.646 15.721 5.397 16.949 16.659l4.364 40.006c2.258 20.698 18.972 30.111 33.573 30.11h.064c14.616-.027 31.341-9.502 33.523-30.237l15.425-146.539c1.255-11.921 10.441-16.497 17.928-16.793 7.483-.294 17.006 3.54 19.198 15.324l10.383 55.805c6.192 33.289 51.999 37.769 64.56 6.365l10.21-25.524c3.775-9.44 12.21-12.264 18.871-11.745 6.646.512 14.564 4.589 16.851 14.496l8.582 37.188c3.315 14.367 14.94 24.58 29.614 26.018 14.678 1.436 28.061-6.324 34.102-19.776l5.498-12.242c1.697-3.778.01-8.217-3.77-9.914-3.777-1.697-8.217-.01-9.914 3.77l-5.498 12.242c-4.076 9.073-12.467 11.629-18.955 10.992-6.491-.636-14.225-4.77-16.462-14.462l-8.582-37.188c-3.389-14.684-15.288-24.922-30.314-26.079-15.019-1.151-28.353 7.138-33.95 21.131l-10.21 25.524c-3.862 9.653-12.485 12.369-19.272 11.71-6.784-.669-14.711-5.026-16.613-15.249l-10.383-55.805c-3.146-16.911-17.302-28.26-34.537-27.568-17.188.68-30.452 13.102-32.253 30.211l-15.425 146.539c-1.303 12.382-10.853 16.793-18.634 16.808-.014 0-.025 0-.039 0-7.774 0-17.311-4.381-18.658-16.737l-4.364-40.006c-2.069-18.962-16.806-28.715-30.492-29.97-13.695-1.261-29.951 5.658-35.431 23.928-3.109 10.368-12.078 13.685-18.863 13.357-6.758-.318-15.402-4.456-17.525-15.07l-5.945-29.725c-6.705-33.521-53.184-37.012-64.856-4.918l-13.394 36.834v-380.194c0-4.143-3.357-7.5-7.5-7.5s-7.5 3.357-7.5 7.5v495c0 4.143 3.357 7.5 7.5 7.5h495c4.143 0 7.5-3.357 7.5-7.5s-3.359-7.5-7.502-7.5z"/><path d="m45.999 53.5h37.5c4.143 0 7.5-3.357 7.5-7.5v-37.5c0-4.143-3.357-7.5-7.5-7.5h-37.5c-4.143 0-7.5 3.357-7.5 7.5v37.5c0 4.143 3.357 7.5 7.5 7.5zm7.5-37.5h22.5v22.5h-22.5z"/><path d="m120.999 16h105c4.143 0 7.5-3.357 7.5-7.5s-3.357-7.5-7.5-7.5h-105c-4.143 0-7.5 3.357-7.5 7.5s3.357 7.5 7.5 7.5z"/><path d="m120.999 53.5h52.5c4.143 0 7.5-3.357 7.5-7.5s-3.357-7.5-7.5-7.5h-52.5c-4.143 0-7.5 3.357-7.5 7.5s3.357 7.5 7.5 7.5z"/><path d="m45.999 121h37.5c4.143 0 7.5-3.357 7.5-7.5v-37.5c0-4.143-3.357-7.5-7.5-7.5h-37.5c-4.143 0-7.5 3.357-7.5 7.5v37.5c0 4.143 3.357 7.5 7.5 7.5zm7.5-37.5h22.5v22.5h-22.5z"/><path d="m120.999 83.5h105c4.143 0 7.5-3.357 7.5-7.5s-3.357-7.5-7.5-7.5h-105c-4.143 0-7.5 3.357-7.5 7.5s3.357 7.5 7.5 7.5z"/><path d="m120.999 121h52.5c4.143 0 7.5-3.357 7.5-7.5s-3.357-7.5-7.5-7.5h-52.5c-4.143 0-7.5 3.357-7.5 7.5s3.357 7.5 7.5 7.5z"/><path d="m45.999 188.5h37.5c4.143 0 7.5-3.357 7.5-7.5v-37.5c0-4.143-3.357-7.5-7.5-7.5h-37.5c-4.143 0-7.5 3.357-7.5 7.5v37.5c0 4.143 3.357 7.5 7.5 7.5zm7.5-37.5h22.5v22.5h-22.5z"/><path d="m120.999 151h105c4.143 0 7.5-3.357 7.5-7.5s-3.357-7.5-7.5-7.5h-105c-4.143 0-7.5 3.357-7.5 7.5s3.357 7.5 7.5 7.5z"/><path d="m120.999 188.5h52.5c4.143 0 7.5-3.357 7.5-7.5s-3.357-7.5-7.5-7.5h-52.5c-4.143 0-7.5 3.357-7.5 7.5s3.357 7.5 7.5 7.5z"/><path d="m45.999 256h37.5c4.143 0 7.5-3.357 7.5-7.5v-37.5c0-4.143-3.357-7.5-7.5-7.5h-37.5c-4.143 0-7.5 3.357-7.5 7.5v37.5c0 4.143 3.357 7.5 7.5 7.5zm7.5-37.5h22.5v22.5h-22.5z"/><path d="m120.999 218.5h105c4.143 0 7.5-3.357 7.5-7.5s-3.357-7.5-7.5-7.5h-105c-4.143 0-7.5 3.357-7.5 7.5s3.357 7.5 7.5 7.5z"/><path d="m120.999 256h52.5c4.143 0 7.5-3.357 7.5-7.5s-3.357-7.5-7.5-7.5h-52.5c-4.143 0-7.5 3.357-7.5 7.5s3.357 7.5 7.5 7.5z"/><path d="m405.999 211c57.897 0 105-47.102 105-105s-47.103-105-105-105-105 47.103-105 105c0 57.853 47.079 105 105 105zm0-15c-22.119 0-42.395-8.025-58.082-21.311l61.189-61.189h86.578c-3.824 46.13-42.585 82.5-89.685 82.5zm89.685-97.5h-82.185v-82.185c43.656 3.619 78.566 38.529 82.185 82.185zm-97.185-82.185v86.578l-61.189 61.189c-13.285-15.687-21.311-35.963-21.311-58.082 0-47.1 36.37-85.861 82.5-89.685z"/></g></g></g><g id="Layer_1"/></svg>