<svg id="Layer_1" viewBox="0 0 512 512" xmlns="http://www.w3.org/2000/svg" data-name="Layer 1"><path d="m483.588 346.815 8.459 12.99c7.834 12.028 3.504 28.033-8.459 35.762v5.601c0 10.807-8.823 19.629-19.629 19.629h-203.157v25.878c16.857 4.222 22.888 25.392 10.452 37.827-14.176 14.176-38.503 4.077-38.503-15.948 0-10.454 7.156-19.399 17.058-21.879v-25.878h-203.158c-10.807 0-19.629-8.823-19.629-19.629v-338.363c-6.415-1.821-11.019-7.726-11.019-14.564v-12.231c0-8.334 6.802-15.135 15.135-15.135h448.335c8.332 0 15.135 6.8 15.135 15.135v12.231c0 6.838-4.604 12.743-11.019 14.564v284.01z" fill-rule="evenodd"/><path d="m31.137 31.868h448.335c2.286 0 4.142 1.856 4.142 4.142v12.231c0 2.286-1.856 4.142-4.142 4.142h-448.335c-2.286 0-4.142-1.856-4.142-4.142v-12.231c0-2.286 1.856-4.143 4.143-4.143z" fill="#e5bfbd"/><g fill-rule="evenodd"><path d="m303.429 325.251c-3.035 0-5.496-2.461-5.496-5.496s2.461-5.496 5.496-5.496h53.51c3.035 0 5.496 2.461 5.496 5.496s-2.461 5.496-5.496 5.496z" fill="#3d7dbd"/><path d="m376.439 325.251c-3.035 0-5.496-2.461-5.496-5.496s2.461-5.496 5.496-5.496h19.965c3.035 0 5.496 2.461 5.496 5.496s-2.461 5.496-5.496 5.496z" fill="#3d7dbd"/><path d="m303.429 293.402c-3.035 0-5.496-2.461-5.496-5.496s2.461-5.496 5.496-5.496h71.73c3.035 0 5.496 2.461 5.496 5.496s-2.461 5.496-5.496 5.496z" fill="#3d7dbd"/><path d="m303.429 388.948c-3.035 0-5.496-2.461-5.496-5.496s2.461-5.496 5.496-5.496h53.51c3.035 0 5.496 2.461 5.496 5.496s-2.461 5.496-5.496 5.496z" fill="#3d7dbd"/><path d="m376.439 388.948c-3.035 0-5.496-2.461-5.496-5.496s2.461-5.496 5.496-5.496h34.01c3.035 0 5.496 2.461 5.496 5.496s-2.461 5.496-5.496 5.496z" fill="#3d7dbd"/><path d="m303.429 357.1c-3.035 0-5.496-2.461-5.496-5.496s2.461-5.496 5.496-5.496h81.533c3.035 0 5.496 2.461 5.496 5.496s-2.461 5.496-5.496 5.496z" fill="#3d7dbd"/><path d="m392.416 276.417-11.216-19.264c-.272-.466-.722-.62-1.234-.446-20.78 7.064-42.97 6.385-62.779-1.039-44.863-16.813-69.726-64.897-57.484-111.263 13.165-49.861 64.26-79.623 114.128-66.455 22.895 6.045 44.152 21.137 56.88 43.327 11.256 19.339 14.779 41.063 11.515 61.58-3.325 20.902-13.689 40.541-30.093 55.127-.416.37-.485.837-.209 1.31l11.208 19.249c1.793 0 3.549.879 4.599 2.494l44.864 68.897v-266.558h-434.581v337.792c0 4.74 3.897 8.637 8.637 8.637h417.307c4.74 0 8.637-3.897 8.637-8.637v-1.623c-10.462 1.337-21.174-3.483-26.186-13.186l-53.998-104.516c-.924-1.63-.987-3.688.004-5.426zm-319.548 42.251h32.917c3.035 0 5.496 2.461 5.496 5.496v62.244c0 3.035-2.461 5.496-5.496 5.496h-32.917c-3.035 0-5.496-2.461-5.496-5.496v-62.244c0-3.035 2.461-5.496 5.496-5.496zm54.572-48.903h32.917c3.035 0 5.496 2.461 5.496 5.496v111.148c0 3.035-2.461 5.496-5.496 5.496h-32.917c-3.035 0-5.496-2.461-5.496-5.496v-111.148c0-3.035 2.461-5.496 5.496-5.496zm54.572 27.568h32.917c3.035 0 5.496 2.461 5.496 5.496v83.579c0 3.035-2.461 5.496-5.496 5.496h-32.917c-3.035 0-5.496-2.461-5.496-5.496v-83.579c0-3.035 2.461-5.496 5.496-5.496zm54.572-57.04h32.917c3.035 0 5.496 2.461 5.496 5.496v140.619c0 3.035-2.461 5.496-5.496 5.496h-32.917c-3.035 0-5.496-2.461-5.496-5.496v-140.619c0-3.035 2.461-5.496 5.496-5.496zm-40.146-17.9c-3.035 0-5.496-2.461-5.496-5.496s2.461-5.496 5.496-5.496h34.01c3.035 0 5.496 2.461 5.496 5.496s-2.461 5.496-5.496 5.496zm-73.011 0c-3.035 0-5.496-2.461-5.496-5.496s2.461-5.496 5.496-5.496h53.51c3.035 0 5.496 2.461 5.496 5.496s-2.461 5.496-5.496 5.496zm44.731-118.677c-3.035 0-5.496-2.461-5.496-5.496s2.461-5.496 5.496-5.496h62.289c3.035 0 5.496 2.461 5.496 5.496s-2.461 5.496-5.496 5.496zm-44.731 0c-3.035 0-5.496-2.461-5.496-5.496s2.461-5.496 5.496-5.496h25.231c3.035 0 5.496 2.461 5.496 5.496s-2.461 5.496-5.496 5.496zm0 28.785c-3.035 0-5.496-2.461-5.496-5.496s2.461-5.496 5.496-5.496h89.176c3.035 0 5.496 2.461 5.496 5.496s-2.461 5.496-5.496 5.496zm0 61.106c-3.035 0-5.496-2.461-5.496-5.496s2.461-5.496 5.496-5.496h81.533c3.035 0 5.496 2.461 5.496 5.496s-2.461 5.496-5.496 5.496zm-64.078-18.593h43.986c3.035 0 5.496 2.461 5.496 5.496v43.987c0 3.035-2.461 5.496-5.496 5.496h-43.986c-3.035 0-5.496-2.461-5.496-5.496v-43.987c0-3.035 2.461-5.496 5.496-5.496zm0-89.892h43.986c3.035 0 5.496 2.461 5.496 5.496v43.987c0 3.035-2.461 5.496-5.496 5.496h-43.986c-3.035 0-5.496-2.461-5.496-5.496v-43.987c0-3.035 2.461-5.496 5.496-5.496z" fill="#e1e1e1"/><path d="m411.57 260.478-9.134-15.688c-2.878-4.944-1.871-11.211 2.399-15.007 14.488-12.883 23.64-30.211 26.572-48.643 2.861-17.99-.202-37.046-10.007-54.059-.133-.198-.254-.405-.361-.62-11.458-19.494-29.711-32.549-49.997-37.906-43.995-11.616-89.112 14.631-100.732 58.641-10.795 40.883 11.107 83.372 50.7 98.21 17.485 6.553 37.08 7.151 55.437.91 5.428-1.845 11.36.387 14.244 5.341l9.105 15.639c3.435-3.077 7.387-5.364 11.775-6.819zm-61.879-159.596c4.804-.259 12.787.999 17.494 2.242 29.555 7.804 49.97 34.2 50.169 65.118.147 22.801-12.245 46.083-33.496 58.216-16.061 9.347-34.395 11.3-51.052 6.902-35.962-9.495-57.426-46.338-47.929-82.307 7.752-29.359 34.296-50.063 64.813-50.171z" fill="#24809d"/><path d="m420.309 269.718c-7.071.858-12.588 4.002-16.783 9.747l4.616 8.936c7.207-1.202 12.989-4.62 17.63-10.292l-5.464-8.391z" fill="#afb6bb"/><path d="m431.973 287.63c-5.156 5.389-11.393 9.057-18.608 10.879l42.792 82.826c1.863 3.606 5.178 6.002 8.988 6.98 13.967 3.586 24.668-11.863 17.713-22.542z" fill="#6d6f6e"/></g><path d="m64.847 96.117h32.994v32.994h-32.994z" fill="#ef6262"/><path d="m64.847 186.009h32.994v32.994h-32.994z" fill="#ef6262"/><path d="m263.482 460.378c-7.261-7.261-19.739-2.098-19.739 8.176s12.478 15.437 19.739 8.177c4.514-4.514 4.514-11.839 0-16.353z" fill="#6a9f33" fill-rule="evenodd"/><path d="m242.081 251.286h21.924v129.627h-21.924z" fill="#24809d"/><path d="m187.509 308.326h21.924v72.587h-21.924z" fill="#fba23d"/><path d="m132.937 280.758h21.924v100.155h-21.924z" fill="#204a5d"/><path d="m78.364 329.661h21.924v51.252h-21.924z" fill="#ef6262"/><path d="m363.263 173.738 30.306 30.306c7.141-8.695 11.452-19.29 12.539-30.306z" fill="#24809d" fill-rule="evenodd"/><path d="m385.793 211.811c-4.376-4.376-39.382-39.118-40.388-40.547-.569-.809-.905-1.986-.905-3.022v-56.125c-23.556 2.292-43.033 19.065-49.016 41.727-7.946 30.096 10.012 60.963 40.114 68.911 17.34 4.578 36.021.673 50.196-10.944z" fill="#fba23d" fill-rule="evenodd"/><path d="m355.492 112.126v50.62h50.626c-2.619-26.921-23.956-47.987-50.626-50.62z" fill="#ef6262" fill-rule="evenodd"/></svg>