<svg id="Icons" height="512" viewBox="0 0 60 60" width="512" xmlns="http://www.w3.org/2000/svg"><path d="m53.281 59.144a.5.5 0 0 1 -.347-.86l2.5-2.416-3.334 1.925a.5.5 0 0 1 -.6-.793l2.637-2.526-3.4 1.965a.5.5 0 0 1 -.6-.79l2.755-2.706-3.587 2.071a.5.5 0 0 1 -.558-.827l.491-.382-.726.419a.5.5 0 0 1 -.558-.827l.589-.461-.839.484a.5.5 0 0 1 -.594-.8l2.59-2.445-3.325 1.919a.5.5 0 0 1 -.578-.81l2.013-1.755-2.542 1.471a.5.5 0 0 1 -.593-.8l2.574-2.429-1.24.715a.5.5 0 0 1 -.587-.8l3.057-2.786a.5.5 0 0 1 .247-.5l.866-.5a.5.5 0 0 1 .587.8l-.658.6.933-.538a.5.5 0 0 1 .593.8l-2.575 2.428 3.3-1.905a.5.5 0 0 1 .579.81l-2.014 1.754 2.537-1.463a.5.5 0 0 1 .594.8l-2.588 2.45 3.32-1.922a.5.5 0 0 1 .558.826l-.586.459.833-.481a.5.5 0 0 1 .557.828l-.49.38.724-.417a.5.5 0 0 1 .6.789l-2.755 2.707 3.583-2.068a.5.5 0 0 1 .6.794l-2.635 2.525 3.27-1.888a.5.5 0 0 1 .6.792l-2.5 2.418 1.991-1.15a.5.5 0 1 1 .5.866l-5.513 3.182a.49.49 0 0 1 -.256.068z" fill="#895a4b"/><path d="m27.089 55.447a.5.5 0 0 1 -.268-.922l5.317-3.371-7.033 4.06a.5.5 0 0 1 -.517-.856l7.712-4.873-9.344 5.394a.5.5 0 0 1 -.515-.857l7.487-4.684-8.829 5.1a.5.5 0 0 1 -.514-.858l7.84-4.877-9.025 5.206a.5.5 0 0 1 -.513-.857l9.341-5.8-10.462 6.04a.5.5 0 0 1 -.519-.854l18.2-11.6-19.811 11.433a.5.5 0 0 1 -.517-.856l17.805-11.225-19.1 11.027a.5.5 0 0 1 -.515-.857l17.683-11.076-18.77 10.837a.5.5 0 0 1 -.511-.859l8.159-4.985-8.7 5.025a.5.5 0 0 1 -.511-.86l10.448-6.4-10.996 6.35a.5.5 0 0 1 -.513-.858l17.555-10.9-18.276 10.552a.5.5 0 0 1 -.512-.859l14.307-8.8-14.81 8.55a.5.5 0 0 1 -.515-.856l22.423-14.086-23.17 13.378a.5.5 0 0 1 -.511-.86l11.691-7.144-11.957 6.9a.5.5 0 0 1 -.512-.857l17.889-11.07-18.245 10.536a.5.5 0 0 1 -.514-.858l19.172-11.9-19.478 11.246a.5.5 0 0 1 -.516-.857l21.835-13.67-22.125 12.773a.5.5 0 0 1 -.513-.858l16.759-10.354-16.813 9.707a.5.5 0 0 1 -.509-.86l4.887-2.962-4.732 2.731a.5.5 0 0 1 -.508-.856l10.425-6.372-10.27 5.925a.5.5 0 0 1 -.515-.853l18.4-11.47-18.255 10.535a.5.5 0 0 1 -.517-.855l20.72-13.078-20.488 11.828a.5.5 0 0 1 -.508-.86l.62-.376-.2.113a.5.5 0 0 1 -.51-.859l4.866-2.967-4.385 2.533a.5.5 0 0 1 -.511-.859l6.252-3.828-5.712 3.3a.5.5 0 0 1 -.512-.857l10.725-6.651-10.079 5.816a.5.5 0 0 1 -.51-.86l1.876-1.146-1.189.687a.5.5 0 0 1 -.515-.858l8.876-5.523-8.017 4.629a.5.5 0 0 1 -.514-.858l6.633-4.126-5.67 3.274a.5.5 0 0 1 -.518-.856l9.325-5.907-8.08 4.665a.5.5 0 0 1 -.528-.849l12.608-8.388-10.637 6.14a.5.5 0 0 1 -.529-.847l8.46-5.689-5.941 3.43a.5.5 0 0 1 -.556-.827l5.723-4.444a.5.5 0 0 1 -.5-.865l6.342-3.662a.5.5 0 0 1 .557.827l-5.73 4.447 12.269-7.083a.5.5 0 0 1 .529.848l-8.455 5.685 11.6-6.7a.5.5 0 0 1 .527.849l-12.615 8.396 15.513-8.954a.5.5 0 0 1 .518.856l-9.313 5.9 10.966-6.334a.5.5 0 0 1 .514.858l-6.646 4.133 7.851-4.532a.5.5 0 0 1 .515.858l-8.868 5.517 10.035-5.793a.5.5 0 0 1 .51.86l-1.881 1.148 2.6-1.5a.5.5 0 0 1 .514.858l-10.734 6.655 11.751-6.784a.5.5 0 0 1 .511.859l-6.223 3.809 6.928-4a.5.5 0 0 1 .511.859l-4.878 2.973 5.468-3.157a.5.5 0 0 1 .508.861l-.639.387 1.062-.613a.5.5 0 0 1 .517.856l-20.721 13.081 21.89-12.638a.5.5 0 0 1 .515.856l-18.399 11.467 19.238-11.1a.5.5 0 0 1 .511.859l-10.445 6.38 10.887-6.284a.5.5 0 0 1 .508.86l-4.855 2.942 5.116-2.957a.5.5 0 0 1 .513.859l-16.754 10.354 17.26-9.965a.5.5 0 0 1 .515.857l-21.845 13.678 22.452-12.962a.5.5 0 0 1 .513.857l-19.155 11.89 19.541-11.282a.5.5 0 0 1 .513.857l-17.905 11.078 18.167-10.488a.5.5 0 0 1 .51.859l-11.678 7.138 11.731-6.776a.5.5 0 0 1 .516.857l-22.428 14.089 22.642-13.071a.5.5 0 0 1 .512.859l-14.3 8.795 14.238-8.22a.5.5 0 0 1 .513.858l-17.564 10.9 17.471-10.082a.5.5 0 0 1 .511.859l-10.421 6.384 10.174-5.874a.5.5 0 0 1 .511.859l-8.169 4.991 7.84-4.527a.5.5 0 0 1 .516.857l-17.678 11.073 17.308-9.993a.5.5 0 0 1 .517.855l-17.809 11.23 17.3-9.987a.5.5 0 0 1 .519.855l-18.2 11.6 17.488-10.1a.5.5 0 0 1 .514.857l-9.336 5.8 8.553-4.938a.5.5 0 0 1 .514.857l-7.852 4.883 6.95-4.012a.5.5 0 0 1 .515.857l-7.5 4.693 6.435-3.713a.5.5 0 0 1 .517.856l-7.7 4.867 6.409-3.7a.5.5 0 0 1 .518.854l-5.307 3.365 3.82-2.2a.5.5 0 0 1 .519.855l-3.476 2.213 1.718-.992a.5.5 0 0 1 .523.852l-2.515 1.637.3-.171a.5.5 0 0 1 .538.84l-3.708 2.619a.5.5 0 0 1 .2.929l-8.307 4.8a.5.5 0 0 1 -.538-.841l2.84-2.006-7.05 4.07a.5.5 0 0 1 -.523-.852l2.515-1.636-4.849 2.8a.5.5 0 0 1 -.519-.854l3.462-2.21-5.348 3.08a.494.494 0 0 1 -.25.067z" fill="#d5dff7"/><path d="m26.96 51.443a.5.5 0 0 1 -.28-.914l11.12-7.523-13.842 7.994a.5.5 0 0 1 -.521-.852l9.841-6.359-11.555 6.667a.5.5 0 0 1 -.515-.857l3.865-2.408-4.816 2.781a.5.5 0 0 1 -.52-.854l12.347-7.9-13.743 7.937a.5.5 0 0 1 -.515-.856l7.845-4.892-8.713 5.031a.5.5 0 0 1 -.512-.86l1.682-1.029-2.2 1.27a.5.5 0 0 1 -.517-.855l12.721-8-13.625 7.865a.5.5 0 0 1 -.507-.859l2-1.222-2.39 1.377a.5.5 0 0 1 -.511-.858l5.775-3.548-6.2 3.582a.5.5 0 0 1 -.517-.856l15.473-9.745-16.208 9.357a.5.5 0 0 1 -.512-.86l5.931-3.634-6.216 3.588a.5.5 0 0 1 -.518-.855l17.381-10.985-17.988 10.389a.5.5 0 0 1 -.511-.859l6.128-3.752-6.28 3.625a.5.5 0 0 1 -.517-.856l16.605-10.451-16.961 9.793a.5.5 0 0 1 -.517-.855l16.753-10.551-17 9.817a.5.5 0 0 1 -.516-.855l16.624-10.484-16.763 9.678a.5.5 0 0 1 -.516-.856l14.6-9.148-14.573 8.41a.5.5 0 0 1 -.518-.855l16.11-10.189-15.994 9.234a.5.5 0 0 1 -.514-.857l11.194-6.979-10.907 6.3a.5.5 0 0 1 -.517-.856l13.168-8.3-12.778 7.375a.5.5 0 0 1 -.518-.854l13.276-8.425-12.749 7.361a.5.5 0 0 1 -.517-.856l9.84-6.2-9.165 5.294a.5.5 0 0 1 -.517-.856l8.721-5.508-7.913 4.568a.5.5 0 0 1 -.518-.853l6.923-4.376-5.95 3.434a.5.5 0 0 1 -.524-.851l9.473-6.173-8.129 4.69a.5.5 0 0 1 -.529-.847l9.112-6.146-7.138 4.121a.5.5 0 0 1 -.533-.846l5.2-3.55-2.678 1.544a.5.5 0 0 1 -.545-.836l3.586-2.624a.481.481 0 0 1 -.2-.193.5.5 0 0 1 .182-.683l5.81-3.355a.5.5 0 0 1 .545.836l-1.866 1.364 6.087-3.509a.5.5 0 0 1 .533.845l-5.199 3.544 8.121-4.689a.5.5 0 0 1 .53.846l-9.111 6.154 11.78-6.8a.5.5 0 0 1 .523.851l-9.47 6.17 11.385-6.577a.5.5 0 0 1 .518.856l-6.925 4.379 8.188-4.728a.5.5 0 0 1 .517.855l-8.726 5.512 9.925-5.729a.5.5 0 0 1 .517.855l-9.828 6.19 10.9-6.294a.5.5 0 0 1 .518.854l-13.282 8.43 14.44-8.336a.5.5 0 0 1 .517.855l-13.165 8.3 14.116-8.152a.5.5 0 0 1 .514.856l-11.202 6.984 11.9-6.872a.5.5 0 0 1 .518.855l-16.103 10.186 16.961-9.79a.5.5 0 0 1 .515.856l-14.586 9.143 15.2-8.777a.5.5 0 0 1 .517.856l-16.635 10.486 17.236-9.95a.5.5 0 0 1 .516.855l-16.749 10.549 17.23-9.947a.5.5 0 0 1 .516.855l-16.607 10.45 16.957-9.786a.5.5 0 0 1 .511.859l-6.118 3.741 6.132-3.54a.5.5 0 0 1 .518.855l-17.386 10.99 17.578-10.149a.5.5 0 0 1 .512.86l-5.926 3.63 5.8-3.346a.5.5 0 0 1 .517.855l-15.488 9.751 15.417-8.9a.5.5 0 0 1 .512.858l-5.765 3.543 5.5-3.174a.5.5 0 0 1 .51.86l-2.01 1.226 1.659-.957a.5.5 0 0 1 .516.856l-12.721 8 12.346-7.126a.5.5 0 0 1 .512.859l-1.652 1.009 1.154-.666a.5.5 0 0 1 .515.856l-7.869 4.907 7.285-4.205a.5.5 0 0 1 .519.853l-12.34 7.895 11.569-6.679a.5.5 0 0 1 .514.857l-3.875 2.413 3.053-1.761a.5.5 0 0 1 .521.852l-9.831 6.352 8.664-5a.5.5 0 0 1 .531.847l-11.122 7.519 9.29-5.363a.5.5 0 0 1 .532.845l-7.038 4.806 4.685-2.7a.5.5 0 0 1 .549.833l-4.138 3.086a.5.5 0 0 1 .416.9l-7.244 4.193a.5.5 0 0 1 -.549-.833l4.082-3.044-8.761 5.057a.5.5 0 0 1 -.532-.845l7.038-4.806-9.968 5.747a.494.494 0 0 1 -.25.067z" fill="#4161a0"/><path d="m27.292 47.449a.5.5 0 0 1 -.322-.883l3.472-2.92-5.876 3.392a.5.5 0 0 1 -.566-.819l2.785-2.287-4.4 2.539a.5.5 0 0 1 -.559-.826l.838-.657-1.677.968a.5.5 0 0 1 -.559-.825l.336-.265-.961.555a.5.5 0 0 1 -.577-.811l1.1-.948-1.807 1.043a.5.5 0 0 1 -.62-.768l1.958-2.164-3.057 1.766a.5.5 0 0 1 -.6-.786l1.572-1.572-2.248 1.3a.5.5 0 0 1 -.583-.806l.825-.735-1.146.661a.5.5 0 0 1 -.584-.8l.875-.787-1.137.656a.5.5 0 0 1 -.579-.809l.588-.513-.052.03a.5.5 0 0 1 -.66-.721l1.337-1.9c-.013-.018-.026-.036-.038-.056a.5.5 0 0 1 .184-.683l.724-.418a.5.5 0 0 1 .66.721l-.744 1.055 2.552-1.476a.5.5 0 0 1 .578.809l-.59.515.8-.46a.5.5 0 0 1 .584.8l-.874.788 1.241-.717a.5.5 0 0 1 .583.8l-.825.736 1.312-.757a.5.5 0 0 1 .6.786l-1.57 1.571 2.532-1.462a.5.5 0 0 1 .62.769l-1.96 2.163 3.623-2.084a.5.5 0 0 1 .577.811l-1.1.948 2.434-1.4a.5.5 0 0 1 .559.825l-.335.264 1.765-1.027a.5.5 0 0 1 .558.826l-.837.656 3.523-2.034a.5.5 0 0 1 .567.82l-2.784 2.287 5.526-3.191a.5.5 0 0 1 .573.816l-3.47 2.922 3.935-2.272a.5.5 0 0 1 .565.821l-1.3 1.05.993-.572a.5.5 0 0 1 .661.718l-.569.821.2-.114a.5.5 0 1 1 .5.865l-2.128 1.229a.5.5 0 0 1 -.661-.718l.57-.821-4.517 2.613a.5.5 0 0 1 -.565-.82l1.293-1.05-3.391 1.957a.491.491 0 0 1 -.25.062z" fill="#25a9fe"/><path d="m23.805 16.163a.5.5 0 0 1 -.25-.933l5.829-3.366a.5.5 0 0 1 .639.746l-1.039 1.29a.474.474 0 0 1 .121.141.5.5 0 0 1 -.182.683l-1.2.7a.5.5 0 0 1 -.64-.746l.488-.607-3.516 2.029a.494.494 0 0 1 -.25.063z" fill="#7ade8a"/><path d="m12.37 39.229a.5.5 0 0 1 -.356-.851l1.7-1.729-1.958 1.13a.5.5 0 0 1 -.606-.784l1.8-1.818-1.95 1.123a.5.5 0 0 1 -.61-.78l2.149-2.234-2.239 1.291a.5.5 0 0 1 -.566-.82l.2-.165a.5.5 0 0 1 -.548-.819l2.22-2.119-2.019 1.169a.5.5 0 0 1 -.56-.823l.315-.249a.5.5 0 0 1 -.5-.848l2.146-1.85-1.688.974a.5.5 0 0 1 -.552-.832l.411-.309a.5.5 0 0 1 -.409-.886l.559-.415a.5.5 0 0 1 -.478-.869l2.036-1.506-1.26.727a.5.5 0 0 1 -.518-.855l.689-.438a.5.5 0 0 1 -.4-.9l9.2-6.415-7.678 4.43a.5.5 0 0 1 -.535-.844l6.367-4.42-4.311 2.488a.5.5 0 0 1 -.563-.823l4.199-3.36a.517.517 0 0 1 -.48-.248.5.5 0 0 1 .183-.683l5.274-3.045a.5.5 0 0 1 .563.823l-3.959 3.168 8.987-5.188a.5.5 0 0 1 .535.844l-6.368 4.429 7.445-4.3a.5.5 0 0 1 .536.842l-9.2 6.415 9.549-5.512a.5.5 0 0 1 .519.854l-10.955 6.963a.5.5 0 0 1 -.155.616l-2.147 1.589a.5.5 0 0 1 .432.883l-1.035.769a.5.5 0 0 1 .287.9l-.726.548a.5.5 0 0 1 .317.879l-2.145 1.849 1.257-.725a.5.5 0 0 1 .56.825l-.442.35a.507.507 0 0 1 .487.192.5.5 0 0 1 -.055.661l-2.221 2.116 1.775-1.024a.5.5 0 0 1 .565.82l-.249.2a.5.5 0 0 1 .51.825l-2.149 2.235 2.116-1.222a.5.5 0 0 1 .605.784l-1.8 1.819 1.915-1.106a.5.5 0 0 1 .612.785l-1.7 1.73 2-1.156a.5.5 0 0 1 .5.865l-5.18 2.992a.49.49 0 0 1 -.25.068z" fill="#7ade8a"/><path d="m42.385 28.941a.5.5 0 0 1 -.355-.852l1.554-1.564-2.323 1.341a.5.5 0 0 1 -.577-.81l1.265-1.094-.826.476a.5.5 0 0 1 -.6-.784l2.193-2.216-2.016 1.162a.5.5 0 0 1 -.616-.774l2.174-2.333-2.258 1.307a.5.5 0 0 1 -.613-.776l1.913-2.024-2.173 1.255a.5.5 0 0 1 -.589-.8l1.11-1.025-1.312.757a.5.5 0 0 1 -.616-.774l1.8-1.939-2.425 1.4a.5.5 0 0 1 -.606-.784l1.57-1.59-2.27 1.31a.5.5 0 0 1 -.6-.788l1.545-1.541-2.439 1.409a.5.5 0 0 1 -.622-.767l1.955-2.177-3.528 2.04a.5.5 0 0 1 -.6-.791l1.769-1.72-3.5 2.021a.5.5 0 0 1 -.558-.827l.144-.111-1.069.616a.5.5 0 0 1 -.609-.78l2.415-2.5-1.812 1.039a.5.5 0 0 1 -.621-.768l.8-.883-.176.1a.5.5 0 0 1 -.735-.554l.265-1.06a.5.5 0 0 1 -.03-.882l.476-.275a.5.5 0 0 1 .735.554l-.19.762 1.9-1.1a.5.5 0 0 1 .621.768l-.8.883 2.14-1.235a.5.5 0 0 1 .609.78l-2.417 2.5 4.252-2.454a.5.5 0 0 1 .558.827l-.14.109.713-.411a.5.5 0 0 1 .6.791l-1.768 1.719 2.78-1.6a.5.5 0 0 1 .622.766l-1.956 2.178 3.023-1.745a.5.5 0 0 1 .6.787l-1.541 1.547 2.174-1.255a.5.5 0 0 1 .6.784l-1.566 1.587 2.1-1.211a.5.5 0 0 1 .616.774l-1.8 1.94 2.3-1.331a.5.5 0 0 1 .589.8l-1.113 1.024 1.271-.734a.5.5 0 0 1 .614.776l-1.914 2.021 2.174-1.256a.5.5 0 0 1 .617.773l-2.175 2.334 2.344-1.352a.5.5 0 0 1 .6.784l-2.192 2.216 2.17-1.253a.5.5 0 0 1 .577.811l-1.268 1.1 1.007-.581a.5.5 0 0 1 .6.785l-1.553 1.564 1.214-.7a.5.5 0 0 1 .711.626l-.485 1.156a.5.5 0 0 1 .584.226.5.5 0 0 1 -.182.683l-1.18.682a.5.5 0 0 1 -.711-.626l.477-1.14-3.178 1.835a.489.489 0 0 1 -.237.062z" fill="#f96771"/><path d="m36.67 45.114a.5.5 0 0 1 -.319-.885l2.231-1.849-2.35 1.356a.5.5 0 0 1 -.542-.838l.651-.468-.611.351a.5.5 0 0 1 -.543-.837l2.526-1.84-2.6 1.5a.5.5 0 0 1 -.551-.832l4.962-3.728-5.224 3.016a.5.5 0 0 1 -.535-.844l4.693-3.252a.493.493 0 0 1 -.226-.187.5.5 0 0 1 .12-.675l1.588-1.182a.51.51 0 0 1 -.5-.2.5.5 0 0 1 .074-.667l2.434-2.164-1.034.6a.5.5 0 0 1 -.606-.783l.6-.615a.5.5 0 0 1 -.45-.681l.263-.679a.511.511 0 0 1 -.14-.155.5.5 0 0 1 .184-.683l.514-.3a.5.5 0 0 1 .716.613l-.092.238 1.494-.862a.5.5 0 0 1 .607.783l-.408.415 2.1-1.21a.5.5 0 0 1 .582.807l-2.433 2.163 2.822-1.629a.5.5 0 0 1 .549.834l-1.4 1.042.688-.4a.5.5 0 0 1 .535.843l-2.734 1.895 1.878-1.084a.5.5 0 0 1 .55.832l-4.959 3.727 3.626-2.089a.5.5 0 0 1 .544.837l-2.53 1.841 1.015-.585a.5.5 0 0 1 .542.838l-1.452 1.047a.5.5 0 0 1 .26.881l-3.57 2.959a.5.5 0 0 1 -.039.841l-3.25 1.877a.491.491 0 0 1 -.25.067z" fill="#fee65b"/><g fill="#262626"><path d="m55.724 27.806c.587-25.191-33.6-36.54-49.019-17.163-20.382 24.679 11.141 57.657 37.058 39.615 4.008 2.659 8.215 12.459 13.572 7.674 6.717-4.971-4.185-9.924-6.953-14.046a26.8 26.8 0 0 0 5.342-16.08zm1.782 25.1c1.84 1.9-.144 3.826-1.609 5.146-3.226 1.979-8.115-6.8-11.028-8.579a28.344 28.344 0 0 0 4.689-4.521c2.656 2.639 5.368 5.238 7.948 7.948zm-13.739-3.446c-22.545 17.491-53.035-11.343-38.337-35.26 23.57-34.986 69.953 8.534 38.337 35.26z"/><path d="m47.724 27.806c.043-10.267-8.748-19.174-19.05-19.085-.281-.376-.867-.259-1.226.029-31.441 2.682-20.1 48.823 8.975 36.523.354.02 1.016-.132 1.082-.558a19.524 19.524 0 0 0 10.219-16.909zm-1.475-.144h-4.529a13.57 13.57 0 0 0 -12.987-13.177v-5.134c9.58.454 17.254 8.873 17.516 18.311zm-14.023 12.08c-19.752 5.99-22.455-26.992-1.895-23.948 11.869 2.124 13.362 20.04 1.895 23.948zm-20-21.322a17.989 17.989 0 0 1 15.041-9.09v5.175c-10.44.243-16.925 13.353-10.307 21.635l-3.607 2.816a19.092 19.092 0 0 1 -1.127-20.536zm1.582 21.139 3.62-2.826a13.891 13.891 0 0 0 16.152 3.58l2.414 4.638c-7.525 3.835-17.077 1.118-22.186-5.392zm23.47 4.688q-1.2-2.3-2.394-4.6a13.851 13.851 0 0 0 6.828-11.308h4.557a19.083 19.083 0 0 1 -8.991 15.908z"/><path d="m34.061 5.337c-.389-.1-1.679.509-1.17.638 18.994 4.087 23.61 31.442 6.844 41.384-16.235 10.675-38.318-6.092-33.435-24.6a22.345 22.345 0 0 1 21.4-17.402c.474 0 1.56-.721.592-.714a24.333 24.333 0 0 0 -21.792 13.605c-9.326 18.409 10.963 39.44 29.8 31.552 21.294-7.433 19.779-39.274-2.239-44.463z"/><path d="m34.728 22.685c.358.776 2 1.089 1.945.03-.976-.673-1.912-2.894-3.255-1.838-.655.792-1.707 1.426-2.143 2.317.647.694 1.535-.257 2-.761v11.119h-2.538c.679-10.894-2.128-10.819-1.474 0h-2.539c.654-7.983-2.015-7.813-1.448 0h-2.549c-.371-1.4.833-4.5-.636-4.984-1.73.527-.443 3.514-.818 4.984-3.98 1.491 7.17.741 8.2.9.554.254 9.3-.058 5.251-.9z"/></g></svg>