<svg id="Layer_1" enable-background="new 0 0 66 66" height="512" viewBox="0 0 66 66" width="512" xmlns="http://www.w3.org/2000/svg"><g><g><path d="m22.4 54.98v4.51c0 2.49-2.02 4.51-4.51 4.51h40.8c2.49 0 4.51-2.02 4.51-4.51v-4.51z" fill="#5e7588"/></g><g><path d="m22.4 59.49v-4.51h35.66v-48.25c0-2.61-2.12-4.73-4.73-4.73h-44.46c2.49 0 4.51 2.02 4.51 4.51v52.76c0 2.57 2.06 4.66 4.62 4.72 2.44-.06 4.4-2.05 4.4-4.5z" fill="#e2e2e2"/></g><g><path d="m13.38 6.51c0-2.49-2.02-4.51-4.51-4.51h-.44c-2.25 0-4.07 1.82-4.07 4.07v6.02h9.02z" fill="#5e7588"/></g><g opacity=".3"><path d="m13.38 6.51c0-2.49-2.02-4.51-4.51-4.51h-.44c-.35 0-.68.06-1.01.14-.08.33-.14.66-.14 1.01 0 3.33 2.7 6.02 6.02 6.02h.08z" fill="#fff"/></g><g><circle cx="22.93" cy="39.78" fill="#fff" r="11.86"/></g><g><path d="m22.93 48.64c-2.37 0-4.59-.92-6.27-2.59-1.67-1.67-2.6-3.9-2.6-6.26 0-2.37.92-4.59 2.6-6.26 1.67-1.67 3.9-2.6 6.27-2.6s4.59.92 6.26 2.59c3.45 3.45 3.45 9.08 0 12.53-1.67 1.67-3.9 2.59-6.26 2.59z" fill="#7cb5e8"/></g><g><path d="m10.9 49.28 2.53 2.53c.16.16.34.29.52.4l-6.98 6.98c-.95.95-2.5.95-3.45 0-.95-.95-.95-2.5 0-3.45l6.98-6.98c.11.18.24.36.4.52z" fill="#ef4a51"/></g><g opacity=".3"><path d="m10.5 48.76-6.98 6.98c-.16.16-.28.34-.39.53.11.19.23.37.39.53.95.95 2.5.95 3.45 0l5.73-5.73-1.8-1.8c-.16-.15-.29-.33-.4-.51z" fill="#fff"/></g><g><path d="m14.54 48.16c-1.14-1.14-2-2.46-2.58-3.86l-1.07 1.07c-1.08 1.08-1.08 2.83 0 3.91l2.53 2.53c1.08 1.08 2.83 1.08 3.91 0l1.07-1.07c-1.4-.58-2.72-1.43-3.86-2.58z" fill="#5e7588"/></g><g opacity=".3"><path d="m18.38 50.73c-1.39-.58-2.7-1.43-3.84-2.56-1.13-1.13-1.99-2.44-2.56-3.84-.89 1.09-.84 2.68.18 3.69l2.53 2.53c1 1.02 2.6 1.07 3.69.18z" fill="#fff"/></g><g opacity=".3"><path d="m53.33 2h-27.8v3.5c0 17.97 14.57 32.53 32.53 32.53v-31.3c0-2.61-2.12-4.73-4.73-4.73z" fill="#fff"/></g><g opacity=".5"><path d="m53.34 2h-15.45c0 2.39 1.94 4.32 4.32 4.32h11.51v8.41c0 2.39 1.94 4.32 4.32 4.32h.01v-12.32c.01-2.61-2.1-4.72-4.71-4.73z" fill="#fff"/></g><g><path d="m45.06 6c-4.97 0-9 4.03-9 9 0 2.49 1.01 4.74 2.64 6.36l6.36-6.36z" fill="#ffab03"/></g><g><path d="m38.7 21.36c1.63 1.63 3.88 2.64 6.36 2.64 4.97 0 9-4.03 9-9h-9z" fill="#ef4a51"/></g><g><path d="m45.06 6v9h9c0-4.97-4.03-9-9-9z" fill="#7cb5e8"/></g><g><path d="m37.57 42.04h3.86v9.08h-3.86z" fill="#8aba55"/></g><g><path d="m44.32 32.04h3.86v19.08h-3.86z" fill="#8aba55"/></g><g><path d="m51.08 38.04h3.86v13.08h-3.86z" fill="#8aba55"/></g><g opacity=".3"><path d="m39.29 46.89c0 1.18.96 2.14 2.14 2.14v-6.99h-2.14z" fill="#fff"/></g><g opacity=".3"><path d="m46.05 47.13c0 1.18.96 2.14 2.14 2.14v-16.99h-2.14z" fill="#fff"/></g><g opacity=".3"><path d="m52.8 38.09v8.85c0 1.18.96 2.14 2.14 2.14v-10.99z" fill="#fff"/></g><g opacity=".3"><path d="m45.07 6c-1.33 0-2.58.29-3.72.81-.52 1.13-.81 2.39-.81 3.72 0 4.97 4.03 9 9 9 1.33 0 2.58-.29 3.72-.81.52-1.13.81-2.39.81-3.72 0-4.97-4.03-9-9-9z" fill="#fff"/></g><g opacity=".3"><path d="m17.6 29.19c-2.24 4.45-1.51 10 2.21 13.71 3.71 3.71 9.27 4.44 13.71 2.21 2.24-4.45 1.51-10-2.21-13.71-3.71-3.72-9.26-4.45-13.71-2.21z" fill="#fff"/></g><g opacity=".3"><path d="m30.79 55.92c0 2.35 1.92 4.26 4.26 4.26h28.07c.04-.23.07-.46.07-.7v-4.51h-32.28c-.07.31-.12.63-.12.95z" fill="#fff"/></g><g opacity=".3"><path d="m63.2 54.98h-20.08c0 1.19.97 2.16 2.16 2.16h15.76v.19c0 1.19.97 2.16 2.16 2.16v2.02z" fill="#fff"/></g><g><path d="m58.69 64.75h-40.8c-.41 0-.75-.34-.75-.75s.34-.75.75-.75c2.07 0 3.76-1.69 3.76-3.76v-4.51c0-.41.34-.75.75-.75h40.8c.41 0 .75.34.75.75v4.51c0 2.9-2.36 5.26-5.26 5.26zm-37.13-1.5h37.13c2.07 0 3.76-1.69 3.76-3.76v-3.76h-39.3v3.76c0 1.47-.61 2.8-1.59 3.76z"/></g><g><path d="m13.38 12.85h-2.31c-.41 0-.75-.34-.75-.75s.34-.75.75-.75h2.31c.41 0 .75.34.75.75s-.34.75-.75.75z"/></g><g><path d="m8.37 12.85h-4.01c-.41 0-.75-.34-.75-.75v-6.03c0-2.66 2.16-4.82 4.82-4.82.41 0 .75.34.75.75s-.33.75-.75.75c-1.83 0-3.32 1.49-3.32 3.32v5.27h3.26c.41 0 .75.34.75.75s-.33.76-.75.76z"/></g><g><path d="m38.7 22.11c-.19 0-.38-.07-.53-.22-1.84-1.84-2.86-4.29-2.86-6.89 0-5.38 4.37-9.75 9.75-9.75.41 0 .75.34.75.75v9c0 .2-.08.39-.22.53l-6.36 6.36c-.15.15-.34.22-.53.22zm5.61-15.33c-4.2.38-7.5 3.92-7.5 8.22 0 1.95.67 3.8 1.91 5.28l5.59-5.59z"/></g><g><path d="m45.06 24.75c-2.6 0-5.05-1.01-6.89-2.86-.29-.29-.29-.77 0-1.06l6.36-6.36c.14-.14.33-.22.53-.22h9c.41 0 .75.34.75.75 0 5.38-4.37 9.75-9.75 9.75zm-5.28-3.41c1.48 1.24 3.33 1.91 5.28 1.91 4.3 0 7.84-3.3 8.22-7.5h-7.91z"/></g><g><path d="m54.06 15.75h-9c-.41 0-.75-.34-.75-.75v-9c0-.41.34-.75.75-.75 2 0 3.92.6 5.56 1.74.34.24.42.7.19 1.04-.24.34-.71.42-1.04.19-1.18-.82-2.53-1.31-3.96-1.44v7.47h7.47c-.14-1.54-.7-2.98-1.64-4.23-.25-.33-.19-.8.15-1.05.33-.25.8-.19 1.05.15 1.29 1.7 1.97 3.74 1.97 5.88 0 .41-.34.75-.75.75z"/></g><g><path d="m41.43 51.87h-3.86c-.41 0-.75-.34-.75-.75v-9.08c0-.41.34-.75.75-.75h3.86c.41 0 .75.34.75.75v9.08c0 .42-.34.75-.75.75zm-3.11-1.5h2.36v-7.58h-2.36z"/></g><g><path d="m48.19 51.87h-3.86c-.41 0-.75-.34-.75-.75v-19.08c0-.41.34-.75.75-.75h3.86c.41 0 .75.34.75.75v19.08c0 .42-.34.75-.75.75zm-3.12-1.5h2.36v-17.58h-2.36z"/></g><g><path d="m54.94 51.87h-3.86c-.41 0-.75-.34-.75-.75v-13.08c0-.41.34-.75.75-.75h3.86c.41 0 .75.34.75.75v13.08c0 .42-.33.75-.75.75zm-3.11-1.5h2.36v-11.58h-2.36z"/></g><g><path d="m22.93 52.39c-3.37 0-6.54-1.31-8.92-3.69s-3.69-5.55-3.69-8.92 1.31-6.53 3.69-8.92c2.38-2.38 5.55-3.69 8.92-3.69s6.53 1.31 8.92 3.69c2.38 2.38 3.69 5.55 3.69 8.92s-1.31 6.54-3.69 8.92c-2.39 2.38-5.56 3.69-8.92 3.69zm0-23.72c-2.84 0-5.69 1.08-7.86 3.25-4.33 4.33-4.33 11.38 0 15.71s11.38 4.33 15.71 0 4.33-11.38 0-15.71c-2.16-2.16-5.01-3.25-7.85-3.25z"/></g><g><path d="m22.93 49.39c-2.57 0-4.98-1-6.8-2.81-1.82-1.82-2.81-4.23-2.81-6.79 0-2.57 1-4.98 2.81-6.79 1.81-1.82 4.23-2.81 6.8-2.81s4.98 1 6.79 2.81c2.6 2.6 3.48 6.38 2.31 9.87-.13.39-.55.6-.95.47-.39-.13-.6-.56-.47-.95.99-2.95.25-6.14-1.95-8.33-1.53-1.53-3.57-2.38-5.73-2.38s-4.2.84-5.73 2.38-2.38 3.57-2.38 5.73c0 2.17.84 4.2 2.38 5.73 1.53 1.53 3.57 2.38 5.73 2.38s4.2-.84 5.73-2.38c.2-.21.4-.42.58-.64.26-.32.73-.37 1.05-.11s.37.73.11 1.05c-.21.26-.44.51-.68.76-1.81 1.81-4.23 2.81-6.79 2.81z"/></g><g><path d="m5.24 60.66c-.82 0-1.63-.31-2.26-.93-1.24-1.24-1.24-3.27 0-4.51l6.99-6.98c.16-.16.39-.24.62-.21s.43.16.55.35c.1.16.19.28.29.38l2.53 2.53c.1.1.22.19.38.29.2.12.33.32.35.55s-.05.46-.21.62l-6.98 6.98c-.63.61-1.45.93-2.26.93zm5.2-10.78-6.39 6.39c-.66.66-.66 1.73 0 2.39s1.73.66 2.39 0l6.39-6.39z"/></g><g><path d="m15.38 53.37c-.9 0-1.8-.34-2.48-1.03l-2.53-2.53c-.66-.66-1.03-1.55-1.03-2.48 0-.94.37-1.82 1.03-2.48l1.07-1.07c.29-.29.77-.29 1.06 0s.29.77 0 1.06l-1.07 1.07c-.38.38-.59.89-.59 1.42s.21 1.04.59 1.42l2.53 2.53c.79.79 2.06.79 2.85 0l1.07-1.07c.29-.29.77-.29 1.06 0s.29.77 0 1.06l-1.07 1.07c-.69.68-1.59 1.03-2.49 1.03z"/></g><g><path d="m14.54 48.91c-.19 0-.38-.07-.53-.22-.45-.45-.84-.9-1.17-1.36-.24-.33-.17-.8.16-1.05s.8-.18 1.05.15c.32.42.66.82 1.03 1.19.15.15.22.34.22.53s-.07.38-.22.53-.34.23-.54.23z"/></g><g><path d="m15.81 50.01c-.15 0-.31-.05-.44-.15-.46-.34-.9-.72-1.36-1.17-.15-.15-.22-.34-.22-.53s.07-.38.22-.53c.29-.29.77-.29 1.06 0 .37.37.77.71 1.19 1.03.33.25.4.72.15 1.05-.14.2-.37.3-.6.3z"/></g><g><path d="m25.94 10.32h-8c-.41 0-.75-.34-.75-.75s.34-.75.75-.75h8c.41 0 .75.34.75.75s-.34.75-.75.75z"/></g><g><path d="m31.5 10.32h-1.9c-.41 0-.75-.34-.75-.75s.34-.75.75-.75h1.9c.41 0 .75.34.75.75s-.34.75-.75.75z"/></g><g><path d="m25.94 13.94h-8c-.41 0-.75-.34-.75-.75s.34-.75.75-.75h8c.41 0 .75.34.75.75s-.34.75-.75.75z"/></g><g><path d="m31.5 13.94h-1.9c-.41 0-.75-.34-.75-.75s.34-.75.75-.75h1.9c.41 0 .75.34.75.75s-.34.75-.75.75z"/></g><g><path d="m25.94 17.56h-8c-.41 0-.75-.34-.75-.75s.34-.75.75-.75h8c.41 0 .75.34.75.75s-.34.75-.75.75z"/></g><g><path d="m31.5 17.56h-1.9c-.41 0-.75-.34-.75-.75s.34-.75.75-.75h1.9c.41 0 .75.34.75.75s-.34.75-.75.75z"/></g><g><path d="m25.94 21.18h-8c-.41 0-.75-.34-.75-.75s.34-.75.75-.75h8c.41 0 .75.34.75.75s-.34.75-.75.75z"/></g><g><path d="m31.5 21.18h-1.9c-.41 0-.75-.34-.75-.75s.34-.75.75-.75h1.9c.41 0 .75.34.75.75s-.34.75-.75.75z"/></g><g><path d="m21.58 43.43c-.19 0-.38-.07-.53-.22l-2.34-2.34c-.29-.29-.29-.77 0-1.06s.77-.29 1.06 0l1.81 1.81 4.87-4.87c.29-.29.77-.29 1.06 0s.29.77 0 1.06l-5.4 5.4c-.15.14-.34.22-.53.22z"/></g><g><path d="m13.38 29.09c-.41 0-.75-.34-.75-.75v-21.83c0-2.07-1.69-3.76-3.76-3.76-.41 0-.75-.34-.75-.75s.34-.75.75-.75h44.46c3.02 0 5.48 2.46 5.48 5.48v12.33c0 .41-.34.75-.75.75s-.75-.34-.75-.75v-12.33c0-2.19-1.78-3.98-3.98-3.98h-40.78c.98.96 1.58 2.29 1.58 3.76v21.83c0 .41-.34.75-.75.75z"/></g><g><path d="m58.06 55.73c-.41 0-.75-.34-.75-.75v-32.58c0-.41.34-.75.75-.75s.75.34.75.75v32.58c0 .41-.34.75-.75.75z"/></g><g><path d="m18 64.74c-.01 0-.01 0-.02 0-3-.07-5.35-2.47-5.35-5.47v-2.99c0-.41.34-.75.75-.75s.75.34.75.75v2.99c0 2.17 1.71 3.92 3.89 3.97.41.01.74.35.73.77-.01.41-.34.73-.75.73z"/></g></g></svg>