<svg id="_x33_0" enable-background="new 0 0 64 64" height="512" viewBox="0 0 64 64" width="512" xmlns="http://www.w3.org/2000/svg"><g><g><g><path d="m46 55v4c0 1.66-6.27 3-14 3s-14-1.34-14-3v-1-3c0 1.66 6.27 3 14 3s14-1.34 14-3z" fill="#656d78"/></g><g><path d="m38 52.29c4.73.48 8 1.51 8 2.71 0 1.66-6.27 3-14 3s-14-1.34-14-3c0-1.2 3.27-2.23 8-2.71v.71c0 .55.45 1 1 1h10c.55 0 1-.45 1-1z" fill="#ccd1d9"/></g><g><path d="m38 52.29v.71c0 .55-.45 1-1 1h-10c-.55 0-1-.45-1-1v-.71-4.29h12z" fill="#656d78"/></g><g><path d="m41.26 8.08c.65.65.78 1.62.43 2.46-.01.02-.01.03-.02.04-.34.84-1.12 1.42-2.03 1.42h-1.64-26v6.17c-2.29.38-4.35 1.4-6 2.88v-13.05c0-1.1.9-2 2-2h33.03l-.93.93z" fill="#ccd1d9"/></g><g><path d="m12 41.83v4.17h-1c-.55 0-1 .45-1 1v1h-2c-1.1 0-2-.9-2-2v-7.05c1.65 1.48 3.71 2.5 6 2.88z" fill="#ccd1d9"/></g><g><path d="m57.07 23.9-1.15-1.16c-.65-.65-1.62-.78-2.46-.43-.02.01-.03.01-.04.02-.84.34-1.42 1.12-1.42 2.03v1.64 16h-4-4-4-4-4-4-12v4h1c.55 0 1 .45 1 1v1h8 12 2 4 4 8c1.1 0 2-.9 2-2v-23.03z" fill="#ccd1d9"/></g><g><path d="m18 55v3c0 1.1-.45 2.1-1.17 2.83-.73.72-1.73 1.17-2.83 1.17-2.21 0-4-1.79-4-4v-8h8z" fill="#e6e9ed"/></g><g><path d="m18 48v2h-8v-2-1c0-.55.45-1 1-1h1 4 1c.55 0 1 .45 1 1z" fill="#fcd770"/></g><g><path d="m16 42v4h-4v-4.17c.65.11 1.32.17 2 .17s1.35-.06 2-.17z" fill="#e6e9ed"/></g><g><path d="m6 21.05c1.65-1.48 3.71-2.5 6-2.88.65-.11 1.32-.17 2-.17 2.46 0 4.74.74 6.64 2 1.54 1.03 2.83 2.4 3.76 4 .7 1.21 1.19 2.56 1.43 4 .11.65.17 1.32.17 2 0 5.95-4.32 10.88-10 11.83-.65.11-1.32.17-2 .17s-1.35-.06-2-.17c-2.29-.38-4.35-1.4-6-2.88-2.46-2.2-4-5.39-4-8.95s1.54-6.75 4-8.95zm1.06 12.92c1.37 2.41 3.97 4.03 6.94 4.03 3.43 0 6.36-2.16 7.49-5.19.33-.87.51-1.82.51-2.81 0-4.42-3.58-8-8-8s-8 3.58-8 8c0 1.45.39 2.8 1.06 3.97z" fill="#ffeaa7"/></g><g><path d="m22 30c0 .99-.18 1.94-.51 2.81l-7.49-2.81v-8c4.42 0 8 3.58 8 8z" fill="#e6e9ed"/></g><g><path d="m62 12v4h-1.64c-.91 0-1.69.58-2.03 1.42-.01.01-.01.02-.02.04-.35.84-.22 1.81.43 2.46l1.16 1.15-1.9 1.9-.93.93-1.15-1.16c-.65-.65-1.62-.78-2.46-.43-.02.01-.03.01-.04.02-.84.34-1.42 1.12-1.42 2.03v1.64h-4v-1.64c0-.91-.58-1.69-1.42-2.03-.01-.01-.02-.01-.04-.02-.84-.35-1.81-.22-2.46.43l-1.15 1.16-2.83-2.83 1.16-1.15c.65-.65.78-1.62.43-2.46-.01-.02-.01-.03-.02-.04-.34-.84-1.12-1.42-2.03-1.42h-1.64v-4h1.64c.91 0 1.69-.58 2.03-1.42.01-.01.01-.02.02-.04.35-.84.22-1.81-.43-2.46l-1.16-1.15.93-.93 1.9-1.9 1.15 1.16c.65.65 1.62.78 2.46.43.02-.01.03-.01.04-.02.84-.34 1.42-1.12 1.42-2.03v-1.64h4v1.64c0 .91.58 1.69 1.42 2.03.01.01.02.01.04.02.84.35 1.81.22 2.46-.43l1.15-1.16 2.83 2.83-1.16 1.15c-.65.65-.78 1.62-.43 2.46.01.02.01.03.02.04.34.84 1.12 1.42 2.03 1.42zm-6 2c0-3.31-2.69-6-6-6s-6 2.69-6 6 2.69 6 6 6 6-2.69 6-6z" fill="#fcd770"/></g><g><path d="m25.83 28c-.24-1.44-.73-2.79-1.43-4-.93-1.6-2.22-2.97-3.76-4-1.9-1.26-4.18-2-6.64-2-.68 0-1.35.06-2 .17v-6.17h26v4h1.64c.91 0 1.69.58 2.03 1.42.01.01.01.02.02.04.35.84.22 1.81-.43 2.46l-1.16 1.15 2.83 2.83 1.15-1.16c.65-.65 1.62-.78 2.46-.43.02.01.03.01.04.02.84.34 1.42 1.12 1.42 2.03v1.64h4v16h-4v-10h-4v10h-4v-8h-4v8h-4v-6h-4v6h-12v-.17c5.68-.95 10-5.88 10-11.83 0-.68-.06-1.35-.17-2z" fill="#4fc1e9"/></g><g><path d="m44 32h4v10h-4z" fill="#ff826e"/></g><g><path d="m36 34h4v8h-4z" fill="#ff826e"/></g><g><path d="m28 36h4v6h-4z" fill="#ff826e"/></g><g><path d="m14 30 7.49 2.81c-1.13 3.03-4.06 5.19-7.49 5.19-2.97 0-5.57-1.62-6.94-4.03z" fill="#fcd770"/></g><g><path d="m14 22v8l-6.94 3.97c-.67-1.17-1.06-2.52-1.06-3.97 0-4.42 3.58-8 8-8z" fill="#ff826e"/></g></g><g><path d="m50 7c-3.86 0-7 3.14-7 7s3.14 7 7 7 7-3.14 7-7-3.14-7-7-7zm4.899 6h-3.899v-3.899c1.956.399 3.5 1.943 3.899 3.899zm-5.899-3.899v3.899h-3.899c.399-1.956 1.943-3.5 3.899-3.899zm-3.899 5.899h3.899v3.899c-1.956-.399-3.5-1.943-3.899-3.899zm5.899 3.899v-3.899h3.899c-.399 1.956-1.943 3.5-3.899 3.899z"/><path d="m14 39c4.962 0 9-4.038 9-9s-4.038-9-9-9-9 4.038-9 9 4.038 9 9 9zm0-2c-2.238 0-4.229-1.06-5.511-2.699l5.6-3.2 6.045 2.267c-1.193 2.163-3.495 3.632-6.134 3.632zm7-7c0 .513-.059 1.013-.165 1.495l-5.835-2.188v-6.227c3.387.488 6 3.401 6 6.92zm-8-6.92v6.34l-5.506 3.146c-.315-.796-.494-1.66-.494-2.566 0-3.519 2.613-6.432 6-6.92z"/><path d="m60.361 17h2.639v-6h-2.639c-.48 0-.905-.307-1.128-.842-.207-.494-.123-1.031.216-1.367l1.867-1.859-4.248-4.248-1.858 1.867c-.337.338-.873.422-1.41.198-.493-.205-.8-.629-.8-1.11v-2.639h-6v2.639c0 .48-.307.905-.842 1.128-.494.206-1.031.122-1.367-.216l-1.859-1.867-2.316 2.316h-32.616c-1.654 0-3 1.346-3 3v12.641c-2.46 2.367-4 5.684-4 9.359s1.54 6.992 4 9.359v6.641c0 1.654 1.346 3 3 3h1v9c0 2.757 2.243 5 5 5 1.738 0 3.272-.892 4.168-2.241 3.307 2.166 12.574 2.241 13.832 2.241 1.535 0 15-.112 15-4v-4c0-1.761-2.693-2.972-8-3.605v-2.395h17c1.654 0 3-1.346 3-3v-22.616l2.316-2.316-1.867-1.858c-.338-.337-.423-.874-.198-1.41.205-.493.629-.8 1.11-.8zm-53.361-9c0-.551.449-1 1-1h30.753l1.799 1.79c.338.337.423.874.198 1.41-.205.493-.629.8-1.11.8h-28.64v6.363c-1.441.342-2.788.921-4 1.7zm35.932 17.316 1.858-1.867c.337-.338.875-.423 1.41-.198.494.205.8.63.8 1.11v2.639h4v14h-2v-10h-6v10h-2v-8h-6v8h-2v-6h-6v6h-6.103c3.659-2.302 6.103-6.366 6.103-11 0-.338-.025-.669-.051-1h6.051v-2h-6.363c-.163-.688-.371-1.359-.64-2h9.003v-2h-10.063c-.461-.718-.989-1.388-1.578-2h11.641v-2h-14.103c-2.002-1.26-4.362-2-6.897-2-.338 0-.669.025-1 .051v-4.051h24v4h2.639c.48 0 .905.307 1.128.842.207.494.123 1.031-.216 1.367l-1.867 1.859zm4.068 15.684h-2v-8h2zm-8 0h-2v-6h2zm-8 0h-2v-4h2zm-6 10.395c-2.664.318-4.664.782-6 1.388v-3.783h6zm-8-4.395v2h-6v-2zm-4-2v-2.051c.331.026.662.051 1 .051s.669-.025 1-.051v2.051zm-10-15c0-6.065 4.935-11 11-11s11 4.935 11 11-4.935 11-11 11-11-4.935-11-11zm5 17c-.551 0-1-.449-1-1v-5.063c1.212.778 2.559 1.357 4 1.7v2.363c-1.103 0-2 .897-2 2zm9 11c0 1.654-1.346 3-3 3s-3-1.346-3-3v-7h6zm15 3c-7.684 0-12.402-1.318-13-2.088v-1.707c3.809 1.729 11.835 1.795 13 1.795s9.191-.066 13-1.795v1.707c-.598.77-5.316 2.088-13 2.088zm0-4c-7.383 0-12.027-1.217-12.911-1.995.443-.366 2.063-1.113 5.952-1.6.188.909.995 1.595 1.959 1.595h10c.964 0 1.771-.686 1.959-1.595 3.888.487 5.509 1.234 5.952 1.6-.884.778-5.528 1.995-12.911 1.995zm5-4h-10v-4h10zm19-6h-7v-2h-2v2h-2v-2h-2v2h-2v-2h-2v2h-20c0-1.103-.897-2-2-2v-2h36v-18.639c0-.48.307-.906.842-1.128.493-.208 1.031-.123 1.367.216l1.791 1.798v20.753c0 .551-.449 1-1 1zm1.389-29.932c-.524 1.248-.27 2.645.648 3.56l.446.444-1.413 1.413-.444-.446c-.915-.917-2.311-1.171-3.592-.635-1.235.511-2.034 1.672-2.034 2.957v.639h-2v-.639c0-1.285-.799-2.446-2.068-2.972-1.25-.524-2.645-.27-3.56.648l-.444.446-1.413-1.413.446-.444c.918-.914 1.172-2.311.634-3.592-.51-1.235-1.671-2.034-2.956-2.034h-.639v-2h.639c1.285 0 2.446-.799 2.972-2.068.524-1.248.27-2.645-.648-3.56l-.446-.444 1.413-1.413.444.446c.914.918 2.312 1.172 3.592.634 1.235-.51 2.034-1.671 2.034-2.956v-.639h2v.639c0 1.285.799 2.446 2.068 2.972 1.249.525 2.644.27 3.56-.648l.444-.446 1.413 1.413-.446.444c-.918.914-1.172 2.311-.634 3.592.51 1.235 1.671 2.034 2.956 2.034h.639v2h-.639c-1.285 0-2.446.799-2.972 2.068z"/><path d="m19 15h16v2h-16z"/><path d="m35 27h2v2h-2z"/><path d="m39 27h2v2h-2z"/></g></g></svg>