<svg id="Capa_1" enable-background="new 0 0 497 497" height="512" viewBox="0 0 497 497" width="512" xmlns="http://www.w3.org/2000/svg"><g><path d="m287 342.75v146.75c0 4.142-3.358 7.5-7.5 7.5h-22.5l-45-154.25z" fill="#f63"/><path d="m257 342.75v154.25h-39.5c-4.142 0-7.5-3.358-7.5-7.5v-146.75z" fill="#ff8b47"/><path d="m362 248.5-75 124.25h-30l-8.5-184.25z" fill="#f9b348"/><path d="m317 248.5-60 124.25h-47l-75-124.25 113.5-60z" fill="#f3da49"/><path d="m392 124.25-30 124.25h-45l-68.5-214.25z" fill="#793bcc"/><path d="m332 124.25-15 124.25h-182l-30-124.25 143.5-90z" fill="#9255e3"/><path d="m486.571 12.341-94.571 111.909h-60l-83.5-62.125 158.5-62.125h73.843c6.383 0 9.848 7.466 5.728 12.341z" fill="#28abfa"/><path d="m407 0-75 124.25h-227l-94.571-111.909c-4.12-4.875-.655-12.341 5.728-12.341z" fill="#14cfff"/></g></svg>