<svg id="Capa_1" enable-background="new 0 0 512 512" height="512" viewBox="0 0 512 512" width="512" xmlns="http://www.w3.org/2000/svg"><g><g><path d="m43.415 151.724 56.432-58.644c11.962-12.431 32.062-11.744 43.147 1.474l21.069 25.122c13.011 15.514 37.509 13.272 47.488-4.346l22.425-39.593c10.354-18.281 36.101-19.843 48.589-2.948l31.123 42.108c10.736 14.525 31.99 15.819 44.409 2.705l28.29-29.874c11.978-12.648 32.321-11.968 43.428 1.451l51.766 62.543v55.859h-438.166z" fill="#ff546a"/><path d="m441.927 139.695c-8.837-9.304-21.265-14.64-34.099-14.64-12.075 0-23.556 4.573-32.324 12.878l-38.262 36.229c-2.056 1.946-4.749 3.019-7.585 3.019-1.837 0-3.663-.468-5.28-1.352l-43.38-23.722c-6.897-3.771-14.696-5.766-22.556-5.766-10.082 0-20.081 3.324-28.152 9.358l-32.442 24.246c-1.919 1.435-4.2 2.193-6.596 2.193-1.719 0-4.285-.4-6.748-2.309l-34.64-26.826c-8.197-6.349-18.424-9.845-28.794-9.845-9.408 0-18.503 2.782-26.303 8.046l-51.351 34.66v21.716h438.165v-26.136z" fill="#ff3650"/><path d="m43.415 207.583 61.422-41.456c10.386-7.01 24.098-6.562 34.005 1.11l34.639 26.827c10.315 7.989 24.693 8.112 35.143.301l32.44-24.246c9.099-6.801 21.33-7.667 31.297-2.217l43.38 23.721c11.049 6.042 24.733 4.268 33.877-4.39l38.261-36.229c11.626-11.008 29.97-10.521 40.995 1.087l52.706 55.492v107.363h-438.165z" fill="#fe9738"/><path d="m448.735 218.392c-8.277-14.963-24.049-24.259-41.157-24.259-16.447 0-31.414 8.368-40.037 22.385l-29.952 48.692c-2.022 3.287-5.545 5.249-9.423 5.249-1.973 0-4.876-.519-7.507-2.988l-29.143-27.358c-8.751-8.216-20.174-12.74-32.165-12.74-14.608 0-28.133 6.604-37.106 18.118l-22.205 28.493c-2.879 3.694-6.68 4.246-8.689 4.246-3.498 0-6.71-1.603-8.811-4.396l-24.272-32.272c-8.966-11.921-22.667-18.758-37.589-18.758-13.677 0-26.648 5.941-35.587 16.3l-41.676 48.292v27.551h438.165v-37.183z" fill="#fe860a"/><path d="m43.415 314.945 55.303-64.083c12.093-14.013 34.037-13.276 45.163 1.517l24.273 32.273c11.485 15.271 34.338 15.467 46.083.395l22.205-28.493c10.498-13.471 30.302-15.008 42.753-3.319l29.142 27.358c13.394 12.575 34.955 9.696 44.581-5.953l29.954-48.693c11.64-18.923 39.357-18.283 50.112 1.157l48.596 87.84v70.154h-438.165z" fill="#fef056"/><path d="m440.139 319.187c-8.846-8.686-20.547-13.469-32.948-13.469-10.856 0-21.456 3.798-29.848 10.693l-40.866 33.584c-1.969 1.616-4.455 2.507-7.004 2.507-1.495 0-2.951-.299-4.329-.888l-47.601-20.363c-5.879-2.516-12.101-3.79-18.492-3.79-9.335 0-18.37 2.741-26.132 7.928l-33.296 22.255c-1.818 1.216-3.934 1.858-6.117 1.858-2.714 0-5.323-.995-7.346-2.801l-33.879-30.25c-8.628-7.704-19.752-11.946-31.321-11.946-10.405 0-20.659 3.52-28.873 9.911l-48.672 37.875v22.808h438.165v-25.225z" fill="#fedf30"/><path d="m43.415 385.099 59.726-46.477c11.062-8.608 26.696-8.08 37.151 1.256l33.879 30.25c9.871 8.813 24.453 9.834 35.455 2.48l33.296-22.254c8.158-5.453 18.519-6.414 27.54-2.554l47.601 20.363c9.962 4.262 21.468 2.619 29.839-4.261l40.869-33.585c11.459-9.416 28.174-8.678 38.757 1.713l54.052 53.069v67.695h-438.165z" fill="#9be69d"/></g><g><path d="m307.656 119.356c6.44 8.713 16.336 14.087 27.149 14.745 10.823.665 21.288-3.476 28.736-11.341l28.29-29.873c4.233-4.471 10.189-6.91 16.345-6.712 6.153.206 11.935 3.044 15.86 7.787l51.766 62.543c1.482 1.792 3.624 2.718 5.781 2.718 1.685 0 3.379-.564 4.778-1.723 3.19-2.641 3.637-7.368.995-10.56l-51.766-62.543c-6.661-8.049-16.472-12.865-26.914-13.214-10.449-.356-20.553 3.803-27.736 11.389l-28.29 29.873c-4.39 4.637-10.567 7.069-16.934 6.684-6.373-.389-12.204-3.556-15.999-8.689l-10.421-14.1c-2.461-3.331-7.158-4.035-10.489-1.573s-4.035 7.158-1.573 10.489z"/><path d="m488.143 311.314-48.595-87.84c-6.355-11.489-17.987-18.529-31.113-18.832-13.125-.307-25.069 6.192-31.949 17.376l-29.953 48.693c-3.403 5.531-9.046 9.196-15.483 10.056-6.43.855-12.842-1.197-17.577-5.642l-29.142-27.358c-7.469-7.012-17.615-10.581-27.822-9.785-10.214.793-19.683 5.882-25.98 13.962l-22.205 28.493c-4.151 5.328-10.428 8.377-17.158 8.291-6.754-.058-12.956-3.187-17.016-8.584l-24.272-32.272c-6.674-8.874-16.866-14.177-27.962-14.549-11.141-.356-21.62 4.234-28.873 12.64l-5.868 6.799c-2.706 3.136-2.358 7.871.777 10.578 3.135 2.705 7.871 2.359 10.578-.777l5.868-6.8c4.274-4.952 10.467-7.666 17.014-7.448 6.539.22 12.545 3.345 16.478 8.573l24.272 32.272c6.89 9.16 17.414 14.47 28.875 14.567 11.479.097 22.074-5.029 29.119-14.069l22.205-28.493c3.765-4.832 9.202-7.754 15.31-8.228 6.1-.479 11.929 1.573 16.395 5.766l29.142 27.358c8.033 7.542 18.9 11.035 29.829 9.574 10.923-1.459 20.499-7.678 26.273-17.064l29.953-48.693c4.054-6.59 11.084-10.43 18.828-10.239 7.734.179 14.588 4.327 18.334 11.098l48.595 87.84c1.368 2.474 3.929 3.87 6.569 3.87 1.228 0 2.474-.302 3.624-.938 3.622-2.006 4.934-6.57 2.93-10.195z"/><path d="m460.384 353.777c-2.956-2.901-7.705-2.858-10.606.097-2.902 2.956-2.858 7.705.097 10.606l26.451 25.971c1.461 1.434 3.358 2.148 5.255 2.148 1.942 0 3.884-.75 5.352-2.245 2.902-2.956 2.858-7.705-.097-10.606z"/><path d="m504.5 445.294h-453.585v-56.527l56.832-44.226c8.209-6.387 19.796-5.993 27.551.932l33.879 30.25c12.424 11.093 30.771 12.376 44.617 3.121l33.295-22.255c6.074-4.059 13.709-4.767 20.424-1.894l47.601 20.363c12.585 5.385 26.974 3.329 37.552-5.361l40.868-33.586c8.517-6.999 20.872-6.456 28.741 1.271l6.873 6.747c2.956 2.901 7.704 2.859 10.606-.099 2.901-2.956 2.857-7.704-.099-10.606l-6.872-6.746c-13.351-13.108-34.32-14.035-48.773-2.156l-40.868 33.585c-6.232 5.121-14.715 6.332-22.128 3.16l-47.601-20.363c-11.396-4.874-24.352-3.673-34.659 3.214l-33.296 22.255c-8.157 5.454-18.971 4.699-26.291-1.84l-33.879-30.25c-13.163-11.753-32.826-12.416-46.753-1.58l-47.62 37.057v-52.026l26.596-30.818c2.706-3.136 2.358-7.872-.777-10.578s-7.873-2.357-10.578.777l-15.24 17.66v-83.205l58.117-39.227c7.72-5.212 17.853-4.879 25.218.823l34.639 26.826c12.933 10.018 31.119 10.175 44.226.379l32.44-24.246c6.728-5.029 15.838-5.676 23.208-1.645l43.381 23.723c13.952 7.628 31.087 5.407 42.631-5.524l38.263-36.229c8.602-8.146 22.239-7.785 30.399.807l52.705 55.492c2.853 3.004 7.6 3.126 10.604.273 3.003-2.853 3.126-7.6.273-10.604l-52.705-55.492c-13.849-14.579-36.992-15.192-51.59-1.368l-38.263 36.229c-6.804 6.443-16.901 7.751-25.121 3.256l-43.38-23.722c-12.509-6.841-27.968-5.744-39.386 2.79l-32.44 24.246c-7.723 5.771-18.438 5.68-26.061-.224l-34.64-26.826c-12.494-9.676-29.691-10.239-42.793-1.397l-49.726 33.562v-38.726l54.336-56.466c4.289-4.458 10.049-6.785 16.242-6.586 6.184.212 11.778 2.939 15.754 7.68l21.069 25.122c7.689 9.17 19.387 13.985 31.311 12.901 11.916-1.091 22.552-7.958 28.45-18.37l22.425-39.593c3.659-6.462 10.01-10.426 17.422-10.875 7.42-.459 14.195 2.718 18.609 8.689l2.765 3.74c2.462 3.331 7.158 4.034 10.489 1.573 3.331-2.462 4.035-7.158 1.573-10.489l-2.765-3.74c-7.381-9.984-19.171-15.493-31.58-14.746-12.394.752-23.446 7.651-29.566 18.455l-22.424 39.593c-3.528 6.228-9.639 10.173-16.766 10.825-7.12.647-13.852-2.119-18.45-7.603l-21.068-25.122c-6.649-7.929-16.395-12.679-26.736-13.032-10.346-.338-20.388 3.721-27.562 11.177l-43.527 45.233v-125.612c0-4.143-3.357-7.5-7.5-7.5s-7.5 3.357-7.5 7.5v437.794h-28.416c-4.143 0-7.5 3.357-7.5 7.5s3.357 7.5 7.5 7.5h28.415v44.206c0 4.143 3.357 7.5 7.5 7.5s7.5-3.357 7.5-7.5v-44.206h453.585c4.143 0 7.5-3.357 7.5-7.5s-3.357-7.5-7.5-7.5z"/><path d="m7.5 41.437h6.044c4.143 0 7.5-3.357 7.5-7.5s-3.357-7.5-7.5-7.5h-6.044c-4.143 0-7.5 3.357-7.5 7.5s3.357 7.5 7.5 7.5z"/><path d="m7.5 95.161h6.044c4.143 0 7.5-3.357 7.5-7.5s-3.357-7.5-7.5-7.5h-6.044c-4.143 0-7.5 3.357-7.5 7.5s3.357 7.5 7.5 7.5z"/><path d="m7.5 148.886h6.044c4.143 0 7.5-3.357 7.5-7.5s-3.357-7.5-7.5-7.5h-6.044c-4.143 0-7.5 3.357-7.5 7.5s3.357 7.5 7.5 7.5z"/><path d="m7.5 202.61h6.044c4.143 0 7.5-3.357 7.5-7.5s-3.357-7.5-7.5-7.5h-6.044c-4.143 0-7.5 3.357-7.5 7.5s3.357 7.5 7.5 7.5z"/><path d="m7.5 256.335h6.044c4.143 0 7.5-3.357 7.5-7.5s-3.357-7.5-7.5-7.5h-6.044c-4.143 0-7.5 3.357-7.5 7.5s3.357 7.5 7.5 7.5z"/><path d="m7.5 310.06h6.044c4.143 0 7.5-3.357 7.5-7.5s-3.357-7.5-7.5-7.5h-6.044c-4.143 0-7.5 3.357-7.5 7.5s3.357 7.5 7.5 7.5z"/><path d="m7.5 363.785h6.044c4.143 0 7.5-3.357 7.5-7.5s-3.357-7.5-7.5-7.5h-6.044c-4.143 0-7.5 3.357-7.5 7.5s3.357 7.5 7.5 7.5z"/><path d="m7.5 417.51h6.044c4.143 0 7.5-3.357 7.5-7.5s-3.357-7.5-7.5-7.5h-6.044c-4.143 0-7.5 3.357-7.5 7.5s3.357 7.5 7.5 7.5z"/></g></g></svg>