<svg fill="none" height="24" viewBox="0 0 24 24" width="24" xmlns="http://www.w3.org/2000/svg"><g fill="#fa3277"><path d="m19 2h-14c-1.65 0-3 1.35-3 3v14c0 1.65 1.35 3 3 3h14c1.65 0 3-1.35 3-3v-14c0-1.65-1.35-3-3-3zm-14 14c0-.55.45-1 1-1s1 .45 1 1v2c0 .55-.45 1-1 1s-1-.45-1-1zm10-4v6c0 .55-.45 1-1 1s-1-.45-1-1v-6c0-.55.45-1 1-1s1 .45 1 1zm-4-4v10c0 .55-.45 1-1 1s-1-.45-1-1v-10c0-.55.45-1 1-1s1 .45 1 1zm7 11c-.55 0-1-.45-1-1v-12c0-.55.45-1 1-1s1 .45 1 1v12c0 .55-.45 1-1 1z" fill-opacity=".2"/><path d="m10 7c-.55 0-1 .45-1 1v10c0 .55.45 1 1 1s1-.45 1-1v-10c0-.55-.45-1-1-1zm4 4c-.55 0-1 .45-1 1v6c0 .55.45 1 1 1s1-.45 1-1v-6c0-.55-.45-1-1-1zm-8 4c-.55 0-1 .45-1 1v2c0 .55.45 1 1 1s1-.45 1-1v-2c0-.55-.45-1-1-1zm12-10c-.55 0-1 .45-1 1v12c0 .55.45 1 1 1s1-.45 1-1v-12c0-.55-.45-1-1-1zm0 0c-.55 0-1 .45-1 1v12c0 .55.45 1 1 1s1-.45 1-1v-12c0-.55-.45-1-1-1zm-4 6c-.55 0-1 .45-1 1v6c0 .55.45 1 1 1s1-.45 1-1v-6c0-.55-.45-1-1-1zm-4-4c-.55 0-1 .45-1 1v10c0 .55.45 1 1 1s1-.45 1-1v-10c0-.55-.45-1-1-1zm-4 8c-.55 0-1 .45-1 1v2c0 .55.45 1 1 1s1-.45 1-1v-2c0-.55-.45-1-1-1zm12-10c-.55 0-1 .45-1 1v12c0 .55.45 1 1 1s1-.45 1-1v-12c0-.55-.45-1-1-1zm-4 6c-.55 0-1 .45-1 1v6c0 .55.45 1 1 1s1-.45 1-1v-6c0-.55-.45-1-1-1zm-4-4c-.55 0-1 .45-1 1v10c0 .55.45 1 1 1s1-.45 1-1v-10c0-.55-.45-1-1-1zm-4 8c-.55 0-1 .45-1 1v2c0 .55.45 1 1 1s1-.45 1-1v-2c0-.55-.45-1-1-1z"/></g></svg>