<svg height="512" viewBox="0 0 512 512" width="512" xmlns="http://www.w3.org/2000/svg" xmlns:xlink="http://www.w3.org/1999/xlink"><linearGradient id="linear-gradient" gradientUnits="userSpaceOnUse" x1="68.49" x2="424.45" y1="68.49" y2="424.45"><stop offset="0" stop-color="#298ffe"/><stop offset="1" stop-color="#0435da"/></linearGradient><linearGradient id="linear-gradient-2" x1="436.15" x2="105.32" xlink:href="#linear-gradient" y1="436.15" y2="105.32"/><g id="Layer_2" data-name="Layer 2"><g id="brightness"><circle cx="256" cy="256" fill="url(#linear-gradient)" r="256"/><circle cx="256" cy="256" fill="url(#linear-gradient-2)" r="220"/><g id="icon" fill="#fff"><path d="m254.77 361a14.23 14.23 0 0 1 -8.76-4.71 13 13 0 0 1 -3.12-8.42c-.08-4.3 0-8.61 0-12.91a13.12 13.12 0 1 1 26.24 0c0 3.62-.17 7.25 0 10.86.41 7-3.13 13.75-11.93 15.18z"/><path d="m257.23 151c4.65.73 8.35 2.94 10.41 7.25a15 15 0 0 1 1.42 5.67c.2 4.43.09 8.87.06 13.31a13.12 13.12 0 1 1 -26.24 0c0-4.17.09-8.34 0-12.5-.19-6.76 4.82-12.84 11.15-13.46a3.93 3.93 0 0 0 .77-.27z"/><path d="m308.5 256.09a52.5 52.5 0 1 1 -52.5-52.59 52.62 52.62 0 0 1 52.5 52.59z"/><path d="m191.09 178a11.83 11.83 0 0 1 8.74 3.37 139.69 139.69 0 0 1 10 9.95c5.08 5.85 4.78 13.28-.34 18.37a13.06 13.06 0 0 1 -18.25.08 134.12 134.12 0 0 1 -10.38-10.68c-3.56-4.18-3.85-9.09-1.43-13.94s6.37-7.06 11.66-7.15z"/><path d="m334 321c-.12 5.3-2.47 9.33-7.23 11.63s-9.78 2.13-13.9-1.55a127.36 127.36 0 0 1 -11.65-11.7c-4.12-4.77-3.36-12.35 1.18-16.91s12.23-5.39 17.06-1.19a160.89 160.89 0 0 1 12.1 12.12 10.23 10.23 0 0 1 2.44 7.6z"/><path d="m334 191.05a12.3 12.3 0 0 1 -3.61 9c-3.49 3.62-7 7.24-10.83 10.51-5 4.28-12.51 3.64-17.21-1.1s-5.25-12.24-1-17.07a125.8 125.8 0 0 1 11.53-11.56c4.05-3.55 8.91-3.91 13.74-1.58s7.24 6.45 7.38 11.8z"/><path d="m192.07 334.1c-6.54-.27-10.63-2.73-12.89-7.72a12.3 12.3 0 0 1 2.21-14.2 132 132 0 0 1 11.09-10.85c4.87-4.19 12.44-3.53 17.07 1.09s5.31 12.22 1.15 17.08-8.21 9.67-13.7 13a18.91 18.91 0 0 1 -4.93 1.6z"/><path d="m170.69 242.73a77.57 77.57 0 0 1 9.17.53 13 13 0 0 1 10.49 13.74 13.2 13.2 0 0 1 -12.9 12.1q-6.64.06-13.31 0a13.12 13.12 0 1 1 0-26.24h6.56z"/><path d="m341.42 242.68c3.18.2 6.45 0 9.55.69 6.2 1.3 10.6 7.46 10 13.33-.79 7.36-5.94 12.33-13 12.41q-6.64.09-13.31 0a13.12 13.12 0 1 1 .19-26.23h6.55z"/></g></g></g></svg>