<svg id="Layer_1" enable-background="new 0 0 512 512" viewBox="0 0 512 512" xmlns="http://www.w3.org/2000/svg" xmlns:xlink="http://www.w3.org/1999/xlink"><linearGradient id="SVGID_1_" gradientUnits="userSpaceOnUse" x1="58.426" x2="451.75" y1="58.426" y2="451.75"><stop offset="0" stop-color="#8dbaf8"/><stop offset=".3342" stop-color="#6faefb"/><stop offset=".7653" stop-color="#4da0fe"/><stop offset="1" stop-color="#409bff"/></linearGradient><radialGradient id="SVGID_00000161589964473074715610000007848855341262739369_" cx="37.461" cy="45.499" gradientUnits="userSpaceOnUse" r="319.547"><stop offset="0" stop-color="#c2deff"/><stop offset="1" stop-color="#c2deff" stop-opacity="0"/></radialGradient><g><g><path d="m511.5 256c-1.54 85.47-16.55 154.21-59.58 195.92-41.71 43.03-110.45 58.04-195.92 59.58-85.47-1.54-154.21-16.55-195.92-59.58-43.03-41.71-58.04-110.45-59.58-195.92 1.54-85.47 16.55-154.21 59.58-195.92 41.71-43.03 110.45-58.04 195.92-59.58 85.47 1.54 154.21 16.55 195.92 59.58 43.03 41.71 58.04 110.45 59.58 195.92z" fill="url(#SVGID_1_)"/><path d="m511.5 256c-1.54 85.47-16.55 154.21-59.58 195.92-41.71 43.03-110.45 58.04-195.92 59.58-85.47-1.54-154.21-16.55-195.92-59.58-43.03-41.71-58.04-110.45-59.58-195.92 1.54-85.47 16.55-154.21 59.58-195.92 41.71-43.03 110.45-58.04 195.92-59.58 85.47 1.54 154.21 16.55 195.92 59.58 43.03 41.71 58.04 110.45 59.58 195.92z" fill="url(#SVGID_00000161589964473074715610000007848855341262739369_)"/></g><g fill="#fff"><path d="m256 164.2c-50.51 0-91.6 41.18-91.6 91.8s41.09 91.8 91.6 91.8 91.6-41.18 91.6-91.8-41.09-91.8-91.6-91.8zm0 158.6c-36.72 0-66.6-29.97-66.6-66.8s29.88-66.8 66.6-66.8 66.6 29.97 66.6 66.8-29.88 66.8-66.6 66.8z"/><path d="m256 149.08c6.32 0 11.46-5.14 11.46-11.45 0-6.32-5.14-11.46-11.46-11.46s-11.45 5.14-11.45 11.46c-.01 6.31 5.13 11.45 11.45 11.45z"/><path d="m331.4 164.17c-4.46 4.47-4.45 11.74.02 16.22s11.72 4.49 16.18.02 4.45-11.74-.02-16.22c-4.47-4.47-11.73-4.48-16.18-.02z"/><path d="m374.08 244.52c-6.3 0-11.43 5.15-11.43 11.48s5.13 11.48 11.43 11.48 11.43-5.15 11.43-11.48-5.13-11.48-11.43-11.48z"/><path d="m331.42 331.61c-4.47 4.48-4.48 11.75-.02 16.22s11.71 4.46 16.18-.02 4.48-11.75.02-16.22-11.72-4.46-16.18.02z"/><path d="m256 362.93c-6.32 0-11.46 5.14-11.46 11.45 0 6.32 5.14 11.46 11.46 11.46s11.45-5.14 11.45-11.46-5.13-11.45-11.45-11.45z"/><path d="m164.4 331.59c-4.46 4.47-4.45 11.74.02 16.22s11.72 4.49 16.18.02 4.45-11.74-.02-16.22c-4.46-4.48-11.72-4.49-16.18-.02z"/><path d="m137.92 244.52c-6.3 0-11.43 5.15-11.43 11.48s5.13 11.48 11.43 11.48 11.43-5.15 11.43-11.48c-.01-6.33-5.13-11.48-11.43-11.48z"/><path d="m180.58 180.39c4.47-4.48 4.48-11.75.02-16.22s-11.71-4.46-16.18.02-4.48 11.75-.02 16.22 11.72 4.46 16.18-.02z"/></g></g></svg>