<svg id="Layer_2" viewBox="0 0 512 512" xmlns="http://www.w3.org/2000/svg" xmlns:xlink="http://www.w3.org/1999/xlink" data-name="Layer 2"><linearGradient id="linear-gradient" gradientUnits="userSpaceOnUse" x1="163.68" x2="437.01" y1="163.68" y2="437.01"><stop offset="0" stop-opacity=".5"/><stop offset="1" stop-opacity="0"/></linearGradient><g id="Icon"><g id="_25" data-name="25"><circle cx="256" cy="256" fill="#0080ff" r="256"/><path d="m264.36 511.85c134.73-4.33 243.16-112.75 247.49-247.49l-132.11-132.11-35.76 32.48-80.86-80.86-14.49 48.69 38.55 38.55-79.7 21.87-36.56-36.56-14.5 14.5 33.88 33.88-30.57 70.99-27.06-27.06-48.65 14.53 80.55 80.55-32.31 35.93 132.11 132.11z" fill="url(#linear-gradient)"/><path d="m358.54 256c0 56.63-45.91 102.54-102.54 102.54s-102.54-45.91-102.54-102.54 45.91-102.54 102.54-102.54 102.54 45.91 102.54 102.54zm-92.29-130.57v-34.18c0-5.66-4.59-10.25-10.25-10.25-5.66 0-10.25 4.59-10.25 10.25v34.18c0 5.66 4.59 10.25 10.25 10.25 5.66 0 10.25-4.59 10.25-10.25zm-10.25 305.57c-5.66 0-10.25-4.59-10.25-10.25v-34.18c0-5.66 4.59-10.25 10.25-10.25 5.66 0 10.25 4.59 10.25 10.25v34.18c0 5.66-4.59 10.25-10.25 10.25zm120.31-175c0-5.66 4.59-10.25 10.25-10.25h34.18c5.66 0 10.25 4.59 10.25 10.25 0 5.66-4.59 10.25-10.25 10.25h-34.18c-5.66 0-10.25-4.59-10.25-10.25zm-295.31 0c0-5.66 4.59-10.25 10.25-10.25h34.18c5.66 0 10.25 4.59 10.25 10.25 0 5.66-4.59 10.25-10.25 10.25h-34.18c-5.66 0-10.25-4.59-10.25-10.25zm260.07-85.07c-4-4-4-10.5 0-14.5l24.17-24.17c4-4 10.5-4 14.5 0 4 4 4 10.5 0 14.5l-24.17 24.17c-4 4-10.5 4-14.5 0zm-208.82 208.82c-4-4-4-10.5 0-14.5l24.17-24.17c4-4 10.5-4 14.5 0 4 4 4 10.5 0 14.5l-24.17 24.17c-4 4-10.5 4-14.5 0zm208.82-38.67c4-4 10.5-4 14.5 0l24.17 24.17c4 4 4 10.5 0 14.5-4 4-10.5 4-14.5 0l-24.17-24.17c-4-4-4-10.5 0-14.5zm-208.81-208.82c4-4 10.5-4 14.5 0l24.17 24.17c4 4 4 10.5 0 14.5-4 4-10.5 4-14.5 0l-24.17-24.17c-4-4-4-10.5 0-14.5z" fill="#cfefff"/></g></g></svg>