<svg id="Layer_1" enable-background="new 0 0 512 512" height="512" viewBox="0 0 512 512" width="512" xmlns="http://www.w3.org/2000/svg" xmlns:xlink="http://www.w3.org/1999/xlink"><linearGradient id="SVGID_1_" gradientUnits="userSpaceOnUse" x1="130.126" x2="391.239" y1="481.692" y2="29.432"><stop offset=".33" stop-color="#52c5dc"/><stop offset=".63" stop-color="#3c99d4"/><stop offset=".895" stop-color="#3e7abc"/></linearGradient><path d="m342.23 214.178c0 29.08-15.76 56.04-41.13 70.38-2.36 1.33-3.81 3.82-3.81 6.53v14.31h-28.35v-51.44c18.75-3.52 32.98-20.02 32.98-39.78 0-22.32-18.16-40.47-40.48-40.47-22.31 0-40.47 18.15-40.47 40.47 0 19.76 14.23 36.25 32.97 39.78v51.44h-28.34v-14.31c0-2.71-1.46-5.2-3.81-6.53-25.37-14.34-41.13-41.3-41.13-70.38 0-44.54 36.24-80.79 80.78-80.79 44.55 0 80.79 36.25 80.79 80.79zm-69.35 123.13c10.84 0 20.06-7.11 23.23-16.91h-69.33c3.17 9.8 12.39 16.91 23.23 16.91zm24.37 19.32h-71.62c-4.14 0-7.5 3.36-7.5 7.5s3.36 7.5 7.5 7.5h7.3c3.32 12.64 14.85 21.98 28.51 21.98 13.67 0 25.2-9.34 28.52-21.98h7.29c4.15 0 7.5-3.36 7.5-7.5s-3.35-7.5-7.5-7.5zm-10.33-142.45c0-14.05-11.43-25.47-25.48-25.47-14.04 0-25.47 11.42-25.47 25.47s11.43 25.48 25.47 25.48c14.05 0 25.48-11.43 25.48-25.48zm114.89 109.69c-3.31-2.7-7.33-4.12-11.62-4.12-10.17 0-18.44 8.27-18.44 18.44 0 5.16 2.18 10.12 5.99 13.6 3.4 3.12 7.83 4.84 12.45 4.84 10.17 0 18.44-8.27 18.44-18.44 0-5.58-2.48-10.8-6.82-14.32zm-333.95-189.48c0-10.17-8.28-18.45-18.45-18.45-10.16 0-18.44 8.28-18.44 18.45s8.28 18.44 18.44 18.44c10.17 0 18.45-8.27 18.45-18.44zm382.3 310.33c-20.43 20.42-48.99 30.87-82.98 30.87-16.54 0-34.36-2.47-53.15-7.47-17.41-4.63-35.05-11.28-52.59-19.74-17.53 8.46-35.17 15.11-52.58 19.74-18.79 5-36.62 7.47-53.16 7.47-33.98 0-62.54-10.44-82.97-30.87-30.37-30.37-38.68-78.71-23.4-136.13 4.64-17.42 11.29-35.06 19.75-52.61-14.6-30.21-23.72-60.46-26.37-88.82 2.16.439 4.41.67 6.7.67 2.88 0 5.67-.37 8.34-1.05 2.27 23.13 9.15 47.65 20.02 72.37 18.19-33.04 42.66-65.36 72.06-94.76 29.39-29.39 61.69-53.85 94.71-72.03-13.23-5.8-26.46-10.48-39.54-13.97-52.03-13.85-95.24-6.92-121.66 19.51-7.62 7.61-13.66 16.69-18.02 27.07-4.37-2.37-9.32-3.8-14.58-4 5.16-12.92 12.54-24.23 21.99-33.68 30.37-30.37 78.71-38.68 136.13-23.4 17.41 4.63 35.05 11.28 52.58 19.74 17.54-8.46 35.18-15.11 52.59-19.74 57.41-15.28 105.76-6.97 136.13 23.4 25.91 25.92 35.95 66.26 28.25 113.58-3.92 24.09-12.35 49.56-24.64 75.04 8.49 17.57 15.15 35.24 19.79 52.68 15.27 57.42 6.96 105.76-23.4 136.13zm-171.82-372.36c33.02 18.18 65.33 42.64 94.72 72.03 29.37 29.37 53.82 61.65 71.99 94.65 9.08-20.66 15.39-41.12 18.55-60.58 7.01-43.05-1.31-77.82-24.05-100.56-26.43-26.43-69.63-33.36-121.66-19.51-13.09 3.49-26.32 8.17-39.55 13.97zm-33.8 367.29c-33.02-18.18-65.32-42.64-94.71-72.03-29.45-29.44-53.89-61.87-72.02-94.76-5.81 13.24-10.5 26.49-13.98 39.59-13.85 52.03-6.92 95.23 19.51 121.66 26.42 26.43 69.63 33.36 121.66 19.51 13.08-3.48 26.31-8.17 39.54-13.97zm214.52-127.2c-3.49-13.12-8.19-26.38-14.01-39.64-8.28 15.07-17.87 30.04-28.64 44.61-1.5-1.89-3.21-3.63-5.13-5.19-2.04-1.65-4.26-3.05-6.61-4.18 12.56-17.03 23.43-34.57 32.37-52.14-17.88-35.07-43.33-69.65-74.59-100.92-31.29-31.29-65.91-56.75-101.01-74.62-35.1 17.87-69.72 43.33-101.01 74.62-31.3 31.3-56.76 65.93-74.64 101.03 17.82 34.86 43.27 69.62 74.64 100.99 31.29 31.29 65.91 56.75 101.01 74.64 35.1-17.89 69.72-43.35 101.01-74.64.02-.02.04-.04.06-.05 1.46 2.15 3.16 4.13 5.1 5.9 1.81 1.66 3.78 3.1 5.87 4.3-.13.16-.27.31-.42.46-29.39 29.39-61.7 53.85-94.72 72.03 13.23 5.8 26.46 10.49 39.55 13.97 52.02 13.85 95.23 6.92 121.66-19.51s33.35-69.63 19.51-121.66z" fill="url(#SVGID_1_)"/></svg>