<svg height="512" viewBox="0 0 32 32" width="512" xmlns="http://www.w3.org/2000/svg"><g id="atom"><g fill="none"><path d="m8.639 11.75a2.893 2.893 0 0 0 .193 2.7 7.224 7.224 0 0 0 .395.708 14.584 14.584 0 0 1 1.984-1.926 14.5 14.5 0 0 1 .676-2.681 7.229 7.229 0 0 0 -.811.012 2.893 2.893 0 0 0 -2.437 1.187z"/><path d="m9.827 16a12.2 12.2 0 0 0 1.219 1.3q-.046-.636-.046-1.3t.046-1.3a12.185 12.185 0 0 0 -1.219 1.3z"/><path d="m13.34 22.285a7.229 7.229 0 0 0 .416.7 2.893 2.893 0 0 0 2.244 1.515 2.893 2.893 0 0 0 2.244-1.519 7.242 7.242 0 0 0 .416-.7 14.43 14.43 0 0 1 -2.66-.752 14.452 14.452 0 0 1 -2.66.756z"/><path d="m17.348 20.942a12.32 12.32 0 0 0 1.738.4 12.132 12.132 0 0 0 .52-1.707q-.531.359-1.106.691c-.383.225-.768.429-1.152.616z"/><path d="m13.5 20.33q-.574-.332-1.106-.691a12.132 12.132 0 0 0 .52 1.707 12.32 12.32 0 0 0 1.738-.4c-.384-.191-.769-.395-1.152-.616z"/><path d="m18.5 11.67q.574.332 1.106.691a12.134 12.134 0 0 0 -.52-1.707 12.312 12.312 0 0 0 -1.738.4c.384.191.769.395 1.152.616z"/><path d="m9.227 16.839a7.217 7.217 0 0 0 -.395.708 2.893 2.893 0 0 0 -.193 2.7 2.893 2.893 0 0 0 2.437 1.184 7.243 7.243 0 0 0 .811.012 14.527 14.527 0 0 1 -.676-2.681 14.591 14.591 0 0 1 -1.984-1.923z"/><path d="m14.652 11.058a12.312 12.312 0 0 0 -1.738-.4 12.134 12.134 0 0 0 -.52 1.707q.531-.365 1.106-.695c.383-.221.768-.425 1.152-.612z"/><path d="m18.66 9.715a7.248 7.248 0 0 0 -.416-.7 2.893 2.893 0 0 0 -2.244-1.515 2.893 2.893 0 0 0 -2.244 1.519 7.236 7.236 0 0 0 -.416.7 14.434 14.434 0 0 1 2.66.756 14.456 14.456 0 0 1 2.66-.76z"/><path d="m22.173 16a12.186 12.186 0 0 0 -1.219-1.3q.046.636.046 1.3t-.046 1.3a12.2 12.2 0 0 0 1.219-1.3z"/><circle cx="16" cy="16" r="1.5"/><path d="m20.924 10.566a7.228 7.228 0 0 0 -.811-.012 14.531 14.531 0 0 1 .676 2.681 14.58 14.58 0 0 1 1.984 1.926 7.225 7.225 0 0 0 .4-.708 2.893 2.893 0 0 0 .193-2.7 2.894 2.894 0 0 0 -2.442-1.187z"/><path d="m16 2.5c-.282 0-.558.025-.836.042a13.991 13.991 0 0 0 0 26.915c.278.017.554.042.836.042a13.5 13.5 0 0 0 0-27zm8.069 14.613a3.854 3.854 0 0 1 .158 3.637 3.852 3.852 0 0 1 -3.227 1.681 8.462 8.462 0 0 1 -1.291-.009 8.386 8.386 0 0 1 -.638 1.122 3.852 3.852 0 0 1 -3.071 1.956 3.852 3.852 0 0 1 -3.07-1.956 8.392 8.392 0 0 1 -.638-1.122 8.461 8.461 0 0 1 -1.292.009 3.854 3.854 0 0 1 -3.227-1.681 3.854 3.854 0 0 1 .158-3.637 8.466 8.466 0 0 1 .654-1.113 8.462 8.462 0 0 1 -.654-1.113 3.854 3.854 0 0 1 -.158-3.637 3.854 3.854 0 0 1 3.227-1.681 8.469 8.469 0 0 1 1.291.009 8.392 8.392 0 0 1 .638-1.122 3.852 3.852 0 0 1 3.071-1.956 3.852 3.852 0 0 1 3.07 1.956 8.386 8.386 0 0 1 .638 1.122 8.47 8.47 0 0 1 1.292-.009 3.852 3.852 0 0 1 3.228 1.681 3.854 3.854 0 0 1 -.158 3.637 8.463 8.463 0 0 1 -.655 1.113 8.466 8.466 0 0 1 .654 1.113z"/><path d="m22.773 16.839a14.587 14.587 0 0 1 -1.984 1.926 14.512 14.512 0 0 1 -.676 2.681 7.242 7.242 0 0 0 .811-.012 2.894 2.894 0 0 0 2.437-1.184 2.893 2.893 0 0 0 -.193-2.7 7.218 7.218 0 0 0 -.395-.711z"/><path d="m18 12.536a17.232 17.232 0 0 0 -2-.99 17.482 17.482 0 0 0 -3.858 2.227 17.53 17.53 0 0 0 0 4.454 17.281 17.281 0 0 0 1.858 1.237 17.232 17.232 0 0 0 2 .99 17.232 17.232 0 0 0 2-.99 17.282 17.282 0 0 0 1.858-1.237 17.538 17.538 0 0 0 0-4.454 17.273 17.273 0 0 0 -1.858-1.237zm-2 5.964a2.5 2.5 0 1 1 2.5-2.5 2.5 2.5 0 0 1 -2.5 2.5z"/></g><path d="m5 16a14.006 14.006 0 0 1 10.164-13.458 13.483 13.483 0 0 0 0 26.915 14.006 14.006 0 0 1 -10.164-13.457z" fill="#ddeaff"/><path d="m16 1.5a14.5 14.5 0 1 0 14.5 14.5 14.507 14.507 0 0 0 -14.5-14.5zm0 28c-.282 0-.558-.025-.836-.042a13.483 13.483 0 0 1 0-26.915c.278-.017.554-.042.836-.042a13.5 13.5 0 0 1 0 27z" fill="#0097e6"/><path d="m16 13.5a2.5 2.5 0 1 0 2.5 2.5 2.5 2.5 0 0 0 -2.5-2.5zm0 4a1.5 1.5 0 1 1 1.5-1.5 1.5 1.5 0 0 1 -1.5 1.5z" fill="#0097e6"/><path d="m24.227 11.25a3.852 3.852 0 0 0 -3.227-1.681 8.47 8.47 0 0 0 -1.291.009 8.386 8.386 0 0 0 -.638-1.122 3.852 3.852 0 0 0 -3.071-1.956 3.852 3.852 0 0 0 -3.07 1.956 8.392 8.392 0 0 0 -.638 1.122 8.469 8.469 0 0 0 -1.292-.009 3.854 3.854 0 0 0 -3.227 1.681 3.854 3.854 0 0 0 .158 3.637 8.462 8.462 0 0 0 .654 1.113 8.466 8.466 0 0 0 -.654 1.113 3.854 3.854 0 0 0 -.158 3.637 3.854 3.854 0 0 0 3.227 1.681 8.461 8.461 0 0 0 1.291-.009 8.392 8.392 0 0 0 .638 1.122 3.852 3.852 0 0 0 3.071 1.956 3.852 3.852 0 0 0 3.07-1.956 8.386 8.386 0 0 0 .638-1.122 8.462 8.462 0 0 0 1.292.009 3.852 3.852 0 0 0 3.228-1.681 3.854 3.854 0 0 0 -.158-3.637 8.466 8.466 0 0 0 -.655-1.113 8.463 8.463 0 0 0 .654-1.113 3.854 3.854 0 0 0 .158-3.637zm-5.141-.6a12.134 12.134 0 0 1 .52 1.707q-.531-.357-1.106-.687c-.383-.221-.768-.425-1.152-.612a12.312 12.312 0 0 1 1.738-.404zm-5.33-1.635a2.893 2.893 0 0 1 2.244-1.515 2.893 2.893 0 0 1 2.244 1.519 7.248 7.248 0 0 1 .416.7 14.456 14.456 0 0 0 -2.66.756 14.434 14.434 0 0 0 -2.66-.756 7.236 7.236 0 0 1 .416-.7zm-.842 1.635a12.312 12.312 0 0 1 1.738.4c-.384.187-.769.391-1.152.612s-.752.452-1.106.691a12.134 12.134 0 0 1 .52-1.699zm-1.838 10.78a2.893 2.893 0 0 1 -2.437-1.18 2.893 2.893 0 0 1 .193-2.7 7.217 7.217 0 0 1 .395-.708 14.591 14.591 0 0 0 1.984 1.926 14.527 14.527 0 0 0 .676 2.681 7.243 7.243 0 0 1 -.811-.015zm-.03-4.131a12.2 12.2 0 0 1 -1.219-1.299 12.185 12.185 0 0 1 1.219-1.3q-.046.636-.046 1.3t.046 1.3zm.165-4.068a14.584 14.584 0 0 0 -1.984 1.926 7.224 7.224 0 0 1 -.395-.708 2.893 2.893 0 0 1 -.193-2.7 2.893 2.893 0 0 1 2.437-1.184 7.229 7.229 0 0 1 .811-.012 14.5 14.5 0 0 0 -.676 2.682zm1.7 8.111a12.132 12.132 0 0 1 -.52-1.707q.531.359 1.106.691c.383.221.768.425 1.152.612a12.32 12.32 0 0 1 -1.735.408zm5.33 1.635a2.893 2.893 0 0 1 -2.241 1.523 2.893 2.893 0 0 1 -2.244-1.519 7.229 7.229 0 0 1 -.416-.7 14.452 14.452 0 0 0 2.66-.752 14.43 14.43 0 0 0 2.66.756 7.242 7.242 0 0 1 -.416.696zm.842-1.635a12.32 12.32 0 0 1 -1.738-.4c.384-.187.769-.391 1.152-.612s.752-.452 1.106-.691a12.132 12.132 0 0 1 -.517 1.707zm.772-3.119a17.282 17.282 0 0 1 -1.855 1.241 17.232 17.232 0 0 1 -2 .99 17.232 17.232 0 0 1 -2-.99 17.281 17.281 0 0 1 -1.858-1.237 17.53 17.53 0 0 1 0-4.454 17.482 17.482 0 0 1 3.858-2.227 17.484 17.484 0 0 1 3.858 2.227 17.538 17.538 0 0 1 0 4.454zm3.5 2.023a2.894 2.894 0 0 1 -2.437 1.184 7.242 7.242 0 0 1 -.811.012 14.512 14.512 0 0 0 .676-2.681 14.587 14.587 0 0 0 1.984-1.926 7.218 7.218 0 0 1 .4.708 2.893 2.893 0 0 1 .194 2.707zm-2.401-5.546a12.186 12.186 0 0 1 1.219 1.3 12.2 12.2 0 0 1 -1.219 1.3q.046-.636.046-1.3t-.046-1.3zm2.214-.244a7.225 7.225 0 0 1 -.4.708 14.58 14.58 0 0 0 -1.984-1.926 14.531 14.531 0 0 0 -.676-2.681 7.228 7.228 0 0 1 .811.012 2.894 2.894 0 0 1 2.437 1.184 2.893 2.893 0 0 1 -.188 2.7z" fill="#487eb0"/></g></svg>