<svg id="Layer_1" enable-background="new 0 0 100 100" viewBox="0 0 100 100" xmlns="http://www.w3.org/2000/svg"><g><path d="m17.87 93.81h-7.65c-1.08 0-1.96-.88-1.96-1.96v-27.59c0-1.08.88-1.96 1.96-1.96h7.65c1.08 0 1.96.88 1.96 1.96v27.58c0 1.09-.87 1.97-1.96 1.97z" fill="#f7bd02"/><path d="m35.87 93.81h-7.65c-1.08 0-1.96-.88-1.96-1.96v-60.59c0-1.08.88-1.96 1.96-1.96h7.65c1.08 0 1.96.88 1.96 1.96v60.58c0 1.09-.87 1.97-1.96 1.97z" fill="#06f"/><path d="m53.87 93.81h-7.65c-1.08 0-1.96-.88-1.96-1.96v-47.59c0-1.08.88-1.96 1.96-1.96h7.65c1.08 0 1.96.88 1.96 1.96v47.58c0 1.09-.87 1.97-1.96 1.97z" fill="#f00"/><path d="m71.87 93.81h-7.65c-1.08 0-1.96-.88-1.96-1.96v-67.59c0-1.08.88-1.96 1.96-1.96h7.65c1.08 0 1.96.88 1.96 1.96v67.58c0 1.09-.87 1.97-1.96 1.97z" fill="#a7218e"/><path d="m89.87 93.81h-7.65c-1.08 0-1.96-.88-1.96-1.96v-57.59c0-1.08.88-1.96 1.96-1.96h7.65c1.08 0 1.96.88 1.96 1.96v57.58c0 1.09-.87 1.97-1.96 1.97z" fill="#390"/><path d="m86.05 16.29c-.7 0-1.34.25-1.85.65l-13.2-8.35c-.27-1.38-1.49-2.42-2.95-2.42-1.54 0-2.79 1.16-2.97 2.64l-12.82 18.33c-.55-.6-1.33-.98-2.21-.98-1.01 0-1.89.5-2.44 1.26l-12.6-11.6c-.23-1.43-1.47-2.53-2.96-2.53-1.56 0-2.83 1.19-2.98 2.72l-14.97 30.04c-.02 0-.04-.01-.06-.01-1.66 0-3.01 1.35-3.01 3.01s1.35 3.01 3.01 3.01 3.01-1.35 3.01-3.01c0-.92-.42-1.74-1.08-2.29l14.06-28.24c.53.48 1.23.78 2.01.78 1.01 0 1.89-.5 2.44-1.26l12.6 11.6c.23 1.43 1.47 2.53 2.96 2.53 1.54 0 2.79-1.16 2.97-2.64l12.83-18.33c.55.6 1.33.98 2.21.98 1.1 0 2.05-.59 2.58-1.47l12.49 7.91c-.05.22-.08.44-.08.67 0 1.66 1.35 3.01 3.01 3.01s3.01-1.35 3.01-3.01-1.35-3-3.01-3z" fill="#cbcbcb"/></g></svg>