<svg id="Layer_1" enable-background="new 0 0 510 510" height="512" viewBox="0 0 510 510" width="512" xmlns="http://www.w3.org/2000/svg"><g><g><path d="m225 203.786-19.396-19.395-21.212 3.109v18.105l40.608 40.608 30-30 10-28.546-10-13.88z" fill="#007680"/><path d="m334.397 94.391-79.397 79.396v42.426l100.609-100.609-5.276-19.937z" fill="#0d5767"/><path d="m225 308.787-60-60.001-90 90.001-15 59.213 15 37 86.5 10 93.5-10 10-85.5-10-70.713z" fill="#aae551"/><path d="m480 263.787-105-105.001-120 120.001v156.213l112.5 10 112.5-10z" fill="#00c77c"/><g fill="#0d5767"><path d="m45 60h-30v-30h30l10 13.5z"/><path d="m45 120h-45v-30h45l10 15z"/><path d="m45 180h-30v-30h30l10 13.5z"/><path d="m45 240h-45v-30h45l10 15z"/><path d="m45 300h-30v-30h30l10 13.5z"/><path d="m45 360h-45v-30h45l10 15z"/><path d="m45 420h-30v-30h30l10 13.5z"/><path d="m75 495h-30v-30l15-10 15 10z"/><path d="m135 510h-30v-45l15-10 15 10z"/><path d="m195 495h-30v-30l15-10 15 10z"/><path d="m255 510h-30v-45l15-10 15 10z"/></g><path d="m315 495h-30v-30l15-10 15 10z" fill="#004b56"/><path d="m375 510h-30v-45l15-10 15 10z" fill="#004b56"/><path d="m435 495h-30v-30l15-10 15 10z" fill="#004b56"/><circle cx="165" cy="165" fill="#00eaff" r="45"/><circle cx="375" cy="75" fill="#00c3ff" r="45"/><path d="m75 435v-435h-30v465h210l10-15-10-15z" fill="#007680"/><path d="m255 435h255v30h-255z" fill="#0d5767"/></g></g></svg>