<svg id="Capa_1" enable-background="new 0 0 512 512" height="512" viewBox="0 0 512 512" width="512" xmlns="http://www.w3.org/2000/svg"><g><path d="m256 0c-141.385 0-256 114.615-256 256 0 123.981 88.137 227.369 205.172 250.946l76.968-250.946z" fill="#73d0ff"/><path d="m466.99 401c-46.16 67.04-123.44 111-210.99 111-17.4 0-34.4-1.74-50.83-5.05l50.83-250.95h26.14z" fill="#f98288"/><path d="m466.99 401c-46.16 67.04-123.44 111-210.99 111v-256h26.14z" fill="#f4384f"/><path d="m256 0v256l210.987 144.996c28.383-41.222 45.013-91.163 45.013-144.996 0-141.385-114.615-256-256-256z" fill="#6a90ef"/><path d="m256 66.921c-104.425 0-189.079 84.654-189.079 189.079 0 91.571 65.097 167.932 151.538 185.346l63.681-185.346z" fill="#ffe650"/><path d="m411.83 363.09c-34.09 49.52-91.16 81.99-155.83 81.99-12.85 0-25.41-1.29-37.54-3.73l37.54-185.35h26.14z" fill="#4d5e80"/><path d="m411.83 363.09c-34.09 49.52-91.16 81.99-155.83 81.99v-189.08h26.14z" fill="#3d4566"/><path d="m411.833 363.093c20.963-30.446 33.246-67.332 33.246-107.093 0-104.425-84.654-189.079-189.079-189.079v189.079z" fill="#68ce32"/></g></svg>