<svg id="Layer_1" viewBox="0 0 512 512" xmlns="http://www.w3.org/2000/svg" data-name="Layer 1"><path d="m70.089 35.91c0-4.418 3.582-8 8-8h5.045c4.418 0 8 3.582 8 8s-3.582 8-8 8h-5.045c-4.418 0-8-3.582-8-8zm31.328 8h48.612c4.418 0 8-3.582 8-8s-3.582-8-8-8h-48.612c-4.418 0-8 3.582-8 8s3.582 8 8 8zm-23.442 20.21h72.055c4.418 0 8-3.582 8-8s-3.582-8-8-8h-72.055c-4.418 0-8 3.582-8 8s3.582 8 8 8zm-64.975-4.627v-26.985c0-4.418 3.582-8 8-8h26.985c4.418 0 8 3.582 8 8v26.985c0 4.418-3.582 8-8 8h-26.985c-4.418 0-8-3.582-8-8zm16-8h10.985v-10.985h-10.985zm48.975 32.837h48.358c4.418 0 8-3.582 8-8s-3.582-8-8-8h-48.358c-4.418 0-8 3.582-8 8s3.582 8 8 8zm420.634 121.377-44.899 138.128-44.871 138.127c-1.07 3.296-4.143 5.528-7.608 5.528h-290.46c-3.466 0-6.537-2.231-7.608-5.527l-44.899-138.129-44.872-138.128c-1.071-3.296.103-6.907 2.906-8.944l117.493-85.349 117.492-85.376c2.805-2.038 6.601-2.038 9.405 0l235.014 170.726c2.804 2.037 3.978 5.649 2.906 8.946zm-25.013-5.229-209.61-152.27v58.587c9.765 3.337 16.809 12.597 16.809 23.478 0 3.413-.694 6.667-1.949 9.628l87.866 78.19c3.6-2.041 7.755-3.213 12.181-3.213 8.106 0 15.316 3.904 19.846 9.927l74.856-24.327zm-324.069 52.572.504-.131c.209-.054.413-.119.614-.188.087-.03.172-.062.257-.094.13-.049.259-.1.386-.155.222-.098.441-.2.653-.316 0 0 .002 0 .003-.001 1.741-.95 3.128-2.474 3.907-4.317 0-.002 0-.003.002-.005.101-.238.188-.483.267-.731.021-.064.039-.129.058-.194.056-.191.105-.385.149-.581.019-.085.038-.17.054-.256.036-.19.064-.383.088-.577.01-.083.023-.165.031-.249.026-.275.042-.552.042-.833 0-2.112-.75-4.052-1.998-5.568-.004-.005-.008-.011-.013-.017-.155-.188-.322-.367-.493-.542-.033-.034-.065-.07-.099-.104-1.588-1.575-3.771-2.55-6.179-2.55-4.857 0-8.809 3.939-8.809 8.781s3.951 8.809 8.809 8.809c.604 0 1.194-.062 1.764-.179zm20.183-20.118c1.135 2.159 1.958 4.504 2.416 6.978.003.018.006.036.01.054.079.434.147.873.203 1.314.01.08.021.159.03.239.045.387.081.777.108 1.169.007.102.017.203.023.304.02.354.03.711.035 1.069l75.453 24.525v-114.857c-.106-.036-.211-.078-.317-.115-.119-.042-.238-.085-.355-.129-.289-.108-.574-.221-.858-.339-.078-.032-.155-.066-.232-.099-.187-.08-.376-.154-.561-.239l-75.971 80.093c.006.011.011.022.016.033zm77.497-102.66c0 2.684 1.213 5.086 3.117 6.698.041.034.079.07.12.103.163.133.333.256.504.377.064.045.126.092.191.135.159.106.324.203.49.298.082.047.161.096.244.14.157.083.319.158.482.232.096.044.191.091.29.132.155.064.315.119.475.174.109.038.217.08.327.113.159.048.322.085.484.125.114.028.227.06.343.083.176.035.357.058.537.082.104.014.207.034.312.045.286.028.575.044.867.044.312 0 .622-.017.929-.05.017-.002.033-.006.05-.008.292-.033.583-.079.869-.14.005-.001.011-.003.016-.004.295-.064.586-.144.873-.238.012-.004.024-.009.037-.013.273-.091.542-.195.806-.312.038-.017.074-.036.112-.054.229-.105.453-.22.673-.345.073-.042.144-.087.216-.131.17-.103.337-.211.501-.326.113-.08.223-.163.332-.248.105-.081.208-.165.31-.251.153-.131.304-.265.448-.406.036-.035.07-.071.106-.106 1.563-1.585 2.531-3.756 2.531-6.149 0-4.857-3.951-8.809-8.809-8.809s-8.781 3.952-8.781 8.809zm108.849 99.751-87.861-78.186c-.029.017-.06.03-.089.047-1.304.732-2.681 1.349-4.117 1.839v114.863l90.135-29.289c.004-.3.008-.601.023-.899.01-.2.03-.398.045-.597.016-.217.028-.434.05-.65.021-.202.05-.401.075-.601.027-.213.049-.427.082-.64.023-.149.053-.295.078-.443.045-.263.088-.526.141-.787.012-.06.028-.119.041-.18.326-1.537.791-3.036 1.398-4.477zm-15.755 162.667c-.112.052-.223.104-.333.16-.132.067-.261.138-.39.212-.109.063-.216.128-.322.195-.12.076-.238.154-.354.236-.11.078-.218.16-.325.242-.103.08-.206.16-.306.245-.116.099-.228.203-.339.307-.083.078-.167.154-.246.235-.127.129-.247.264-.365.4-.057.065-.117.128-.171.195-.149.182-.29.371-.424.564-.019.028-.041.054-.06.082-.313.464-.585.959-.806 1.48-.001.003-.002.006-.003.009-.105.249-.199.505-.281.765-.021.067-.037.136-.057.203-.057.197-.111.396-.155.599-.021.1-.036.202-.054.304-.089.5-.144 1.011-.144 1.536 0 4.857 3.951 8.809 8.809 8.809s8.781-3.952 8.781-8.809-3.939-8.78-8.781-8.78c-.29 0-.575.016-.857.043-.111.011-.221.031-.331.046-.167.023-.334.044-.498.076-.135.026-.267.061-.399.093-.135.033-.271.065-.403.104-.141.042-.279.09-.417.138-.12.042-.24.084-.357.131-.139.055-.275.116-.41.178zm-16.602-6.285-67.709-93.197-52.348 72.074c.005.007.01.014.016.021.051.072.103.143.153.216.332.482.646.977.944 1.482.054.093.107.186.161.279.297.52.581 1.048.84 1.59.016.033.029.066.045.099.25.527.479 1.066.691 1.613.033.085.068.17.101.256.208.553.396 1.116.564 1.688.032.109.062.218.093.328.164.584.312 1.174.434 1.775.002.012.006.023.009.035l114.045 15.011c.04-.08.086-.156.126-.235.161-.315.328-.627.502-.935.069-.122.139-.243.209-.363.195-.331.397-.657.607-.978.046-.07.09-.142.136-.212.124-.185.252-.366.381-.548zm-149.113-6.862c0 4.857 3.951 8.809 8.809 8.809 4.492 0 8.201-3.403 8.714-7.773.011-.104.021-.205.029-.302.02-.242.037-.486.037-.733 0-4.842-3.938-8.781-8.78-8.781-.337 0-.649.025-.958.054-.273.029-.542.069-.808.123-.004 0-.008.001-.012.002-4.008.822-7.031 4.366-7.031 8.601zm-13.103-114.456 23.642 89.735c.07.005.137.018.207.023.625.049 1.247.114 1.859.208.02.003.039.008.059.011.604.095 1.199.217 1.789.354.101.023.202.045.303.07.46.114.917.237 1.367.376l52.339-72.063-75.445-24.523c-1.687 2.258-3.747 4.233-6.118 5.808zm-35.01 206.403h259.056l-34.243-47.124c-2.312.717-4.769 1.104-7.313 1.104-12.01 0-22.051-8.579-24.324-19.93l-114.043-15.011c-4.054 8.183-12.485 13.824-22.21 13.824-2.554 0-5.019-.389-7.339-1.109l-49.582 68.247zm239.642-210.586c-2.741-1.659-5.138-3.833-7.053-6.389l-90.13 29.287 67.701 93.185c.905-.28 1.833-.504 2.779-.68.097-.018.194-.035.292-.052.393-.068.789-.127 1.188-.177.073-.009.145-.024.219-.032l25.004-115.141zm21.589-21.247c0-4.842-3.952-8.78-8.81-8.78-2.722 0-5.159 1.245-6.771 3.196-.002.002-.003.004-.005.006-1.062 1.287-1.761 2.88-1.951 4.625-.002.024-.007.047-.009.07-.029.291-.045.585-.045.883 0 .28.016.555.042.829.011.117.03.232.046.348.02.149.04.298.067.444.028.149.062.296.098.442.025.104.051.206.08.308.047.169.099.337.157.502.023.067.048.133.072.198.071.188.145.375.228.558.009.021.02.041.029.061.505 1.087 1.225 2.061 2.11 2.858.019.017.037.034.055.051.164.145.333.283.508.416.027.021.055.041.082.062.178.132.361.259.549.377.015.01.031.019.046.028.828.514 1.749.895 2.737 1.105l.42.09c.474.08.957.131 1.453.131 4.857 0 8.81-3.952 8.81-8.809zm-349.299-39.178 89.511 29.089c4.53-6.024 11.739-9.927 19.845-9.927 3.679 0 7.171.812 10.313 2.257l75.981-80.103c-1.817-3.444-2.852-7.363-2.852-11.521 0-10.877 7.032-20.135 16.781-23.475v-58.587l-104.79 76.146-104.791 76.122zm75.12 261.61 49.598-68.266c-2.855-4.041-4.54-8.965-4.54-14.278 0-8.593 4.403-16.177 11.073-20.623l-23.649-89.761c-12.745-.896-22.859-11.454-23.045-24.379l-89.503-29.086 40.02 123.196 40.046 123.198zm365.012-246.392-74.844 24.323c-.181 12.55-9.723 22.87-21.943 24.278l-25.003 115.139c7.188 4.343 12.005 12.231 12.005 21.225 0 5.315-1.684 10.24-4.537 14.282l34.257 47.144 40.021-123.197 40.045-123.194zm-59.479-171.787h5.046c4.418 0 8-3.582 8-8s-3.582-8-8-8h-5.046c-4.418 0-8 3.582-8 8s3.582 8 8 8zm23.329 0h48.612c4.418 0 8-3.582 8-8s-3.582-8-8-8h-48.612c-4.418 0-8 3.582-8 8s3.582 8 8 8zm-23.471 20.21h72.083c4.418 0 8-3.582 8-8s-3.582-8-8-8h-72.083c-4.418 0-8 3.582-8 8s3.582 8 8 8zm-64.946-4.627v-26.985c0-4.418 3.582-8 8-8h26.985c4.418 0 8 3.582 8 8v26.985c0 4.418-3.582 8-8 8h-26.985c-4.418 0-8-3.582-8-8zm16-8h10.985v-10.985h-10.985zm48.946 32.837h48.357c4.418 0 8-3.582 8-8s-3.582-8-8-8h-48.357c-4.418 0-8 3.582-8 8s3.582 8 8 8z"/><path d="m158.584 379.545c0-8.593 4.403-16.177 11.073-20.623l-23.649-89.761c-12.745-.896-22.859-11.454-23.045-24.379l-89.503-29.086 40.02 123.196 40.046 123.198 49.598-68.266c-2.855-4.041-4.54-8.965-4.54-14.278z" fill="#30e5a3"/><path d="m369.971 40.508h10.985v10.985h-10.985z" fill="#f46240"/><path d="m250.322 136.971c.041.034.079.07.12.103.163.133.333.256.504.377.064.045.126.092.191.135.159.106.324.203.49.298.082.047.161.096.244.14.157.083.319.158.482.232.096.044.191.091.29.132.155.064.315.119.475.174.109.038.217.08.327.113.159.048.322.085.484.125.114.028.227.06.343.083.176.035.357.058.537.082.104.014.207.034.312.045.286.028.575.044.867.044.312 0 .622-.017.929-.05.017-.002.033-.006.05-.008.292-.033.583-.079.869-.14.005-.001.011-.003.016-.004.295-.064.586-.144.873-.238.012-.004.024-.009.037-.013.273-.091.542-.195.806-.312.038-.017.074-.036.112-.054.229-.105.453-.22.673-.345.073-.042.144-.087.216-.131.17-.103.337-.211.501-.326.113-.08.223-.163.332-.248.105-.081.208-.165.31-.251.153-.131.304-.265.448-.406.036-.035.07-.071.106-.106 1.563-1.585 2.531-3.756 2.531-6.149 0-4.857-3.951-8.809-8.809-8.809s-8.781 3.952-8.781 8.809c0 2.684 1.213 5.086 3.117 6.698z" fill="#a8d3d8"/><path d="m203.809 365.522c.332.482.646.977.944 1.482.054.093.107.186.161.279.297.52.581 1.048.84 1.59.016.033.029.066.045.099.25.527.479 1.066.691 1.613.033.085.068.17.101.256.208.553.396 1.116.564 1.688.032.109.062.218.093.328.164.584.312 1.174.434 1.775.002.012.006.023.009.035l114.045 15.011c.04-.08.086-.156.126-.235.161-.315.328-.627.502-.935.069-.122.139-.243.209-.363.195-.331.397-.657.607-.978.046-.07.09-.142.136-.212.124-.185.252-.366.381-.548l-67.709-93.197-52.348 72.074c.005.007.01.014.016.021.051.072.103.143.153.216z" fill="#dfc84a"/><path d="m381.75 264.298-25.003 115.139c7.188 4.343 12.005 12.231 12.005 21.225 0 5.315-1.684 10.24-4.537 14.282l34.257 47.144 40.021-123.197 40.045-123.194-74.844 24.323c-.181 12.55-9.723 22.87-21.943 24.278z" fill="#ff9811"/><path d="m172.134 239.965c.079.434.147.873.203 1.314.01.08.021.159.03.239.045.387.081.777.108 1.169.007.102.017.203.023.304.02.354.03.711.035 1.069l75.453 24.525v-114.857c-.106-.036-.211-.078-.317-.115-.119-.042-.238-.085-.355-.129-.289-.108-.574-.221-.858-.339-.078-.032-.155-.066-.232-.099-.187-.08-.376-.154-.561-.239l-75.971 80.093c.006.011.011.022.016.033 1.135 2.159 1.958 4.504 2.416 6.978.003.018.006.036.01.054z" fill="#01c0fa"/><path d="m354.144 238.399c.01-.2.03-.398.045-.597.016-.217.028-.434.05-.65.021-.202.05-.401.075-.601.027-.213.049-.427.082-.64.023-.149.053-.295.078-.443.045-.263.088-.526.141-.787.012-.06.028-.119.041-.18.326-1.537.791-3.036 1.398-4.477l-87.861-78.186c-.029.017-.06.03-.089.047-1.304.732-2.681 1.349-4.117 1.839v114.863l90.135-29.289c.004-.3.008-.601.023-.899z" fill="#ea5334"/><path d="m147.762 219.64c3.679 0 7.171.812 10.313 2.257l75.981-80.103c-1.817-3.444-2.852-7.363-2.852-11.521 0-10.877 7.032-20.135 16.781-23.475v-58.587l-104.79 76.146-104.791 76.122 89.511 29.089c4.53-6.024 11.739-9.927 19.845-9.927z" fill="#01d0fb"/><path d="m343.971 425.471c-12.01 0-22.051-8.579-24.324-19.93l-114.043-15.011c-4.054 8.183-12.485 13.824-22.21 13.824-2.554 0-5.019-.389-7.339-1.109l-49.582 68.247h259.056l-34.243-47.124c-2.312.717-4.769 1.104-7.313 1.104z" fill="#f9d641"/><g fill="#a8d3d8"><path d="m154.04 238.294c-.033-.034-.065-.07-.099-.104-1.588-1.575-3.771-2.55-6.179-2.55-4.857 0-8.809 3.939-8.809 8.781s3.951 8.809 8.809 8.809c.604 0 1.194-.062 1.764-.179l.504-.131c.209-.054.413-.119.614-.188.087-.03.172-.062.257-.094.13-.049.259-.1.386-.155.222-.098.441-.2.653-.316 0 0 .002 0 .003-.001 1.741-.95 3.128-2.474 3.907-4.317 0-.002 0-.003.002-.005.101-.238.188-.483.267-.731.021-.064.039-.129.058-.194.056-.191.105-.385.149-.581.019-.085.038-.17.054-.256.036-.19.064-.383.088-.577.01-.083.023-.165.031-.249.026-.275.042-.552.042-.833 0-2.112-.75-4.052-1.998-5.568-.004-.005-.008-.011-.013-.017-.155-.188-.322-.367-.493-.542z"/><path d="m183.393 370.764c-.337 0-.649.025-.958.054-.273.029-.542.069-.808.123-.004 0-.008.001-.012.002-4.008.822-7.031 4.366-7.031 8.601 0 4.857 3.951 8.809 8.809 8.809 4.492 0 8.201-3.403 8.714-7.773.011-.104.021-.205.029-.302.02-.242.037-.486.037-.733 0-4.842-3.938-8.781-8.78-8.781z"/><path d="m372.122 234.074s-.003.004-.005.006c-1.062 1.287-1.761 2.88-1.951 4.625-.002.024-.007.047-.009.07-.029.291-.045.585-.045.883 0 .28.016.555.042.829.011.117.03.232.046.348.02.149.04.298.067.444.028.149.062.296.098.442.025.104.051.206.08.308.047.169.099.337.157.502.023.067.048.133.072.198.071.188.145.375.228.558.009.021.02.041.029.061.505 1.087 1.225 2.061 2.11 2.858.019.017.037.034.055.051.164.145.333.283.508.416.027.021.055.041.082.062.178.132.361.259.549.377.015.01.031.019.046.028.828.514 1.749.895 2.737 1.105l.42.09c.474.08.957.131 1.453.131 4.857 0 8.81-3.952 8.81-8.809s-3.952-8.78-8.81-8.78c-2.722 0-5.159 1.245-6.771 3.196z"/></g><path d="m167.6 259.281c-1.687 2.258-3.747 4.233-6.118 5.808l23.642 89.735c.07.005.137.018.207.023.625.049 1.247.114 1.859.208.02.003.039.008.059.011.604.095 1.199.217 1.789.354.101.023.202.045.303.07.46.114.917.237 1.367.376l52.339-72.063-75.445-24.523z" fill="#24d18f"/><path d="m29 40.508h10.985v10.985h-10.985z" fill="#01d0fb"/><path d="m280.795 130.273c0 3.413-.694 6.667-1.949 9.628l87.866 78.19c3.6-2.041 7.755-3.213 12.181-3.213 8.106 0 15.316 3.904 19.846 9.927l74.856-24.327-209.609-152.27v58.587c9.765 3.337 16.809 12.597 16.809 23.478z" fill="#f46240"/><path d="m343.113 391.925c-.111.011-.221.031-.331.046-.167.023-.334.044-.498.076-.135.026-.267.061-.399.093-.135.033-.271.065-.403.104-.141.042-.279.09-.417.138-.12.042-.24.084-.357.131-.139.055-.275.116-.41.178-.112.052-.223.104-.333.16-.132.067-.261.138-.39.212-.109.063-.216.128-.322.195-.12.076-.238.154-.354.236-.11.078-.218.16-.325.242-.103.08-.206.16-.306.245-.116.099-.228.203-.339.307-.083.078-.167.154-.246.235-.127.129-.247.264-.365.4-.057.065-.117.128-.171.195-.149.182-.29.371-.424.564-.019.028-.041.054-.06.082-.313.464-.585.959-.806 1.48-.001.003-.002.006-.003.009-.105.249-.199.505-.281.765-.021.067-.037.136-.057.203-.057.197-.111.396-.155.599-.021.1-.036.202-.054.304-.089.5-.144 1.011-.144 1.536 0 4.857 3.951 8.809 8.809 8.809s8.781-3.952 8.781-8.809-3.939-8.78-8.781-8.78c-.29 0-.575.016-.857.043z" fill="#a8d3d8"/><path d="m359.061 254.517-90.13 29.287 67.701 93.185c.905-.28 1.833-.504 2.779-.68.097-.018.194-.035.292-.052.393-.068.789-.127 1.188-.177.073-.009.145-.024.219-.032l25.004-115.141c-2.741-1.659-5.138-3.833-7.053-6.389z" fill="#ed870c"/></svg>