<svg enable-background="new 0 0 64 64" height="512" viewBox="0 0 64 64" width="512" xmlns="http://www.w3.org/2000/svg"><g id="Layer_30"><path d="m59 60h-54c-.552 0-1-.447-1-1v-54c0-.552.448-1 1-1s1 .448 1 1v53h53c.552 0 1 .447 1 1s-.448 1-1 1z" fill="#d1d8d5"/><circle cx="27" cy="23" fill="#ff2c02" r="6"/><circle cx="49" cy="43" fill="#fade1d" r="6"/><g fill="#ff2c02"><circle cx="40" cy="31" r="6"/><circle cx="35" cy="49" r="6"/><circle cx="15" cy="49" r="6"/></g><circle cx="25" cy="37" fill="#fade1d" r="6"/><circle cx="47" cy="12" fill="#fade1d" r="6"/><circle cx="54" cy="27" fill="#ff2c02" r="6"/><path d="m27 17c-.341 0-.674.035-1 .09 2.834.478 5 2.941 5 5.91s-2.166 5.432-5 5.91c.326.055.659.09 1 .09 3.31 0 6-2.69 6-6s-2.69-6-6-6z" fill="#e21e01"/><path d="m49 37c-.341 0-.674.035-1 .09 2.834.478 5 2.941 5 5.91s-2.166 5.432-5 5.91c.326.055.659.09 1 .09 3.31 0 6-2.69 6-6s-2.69-6-6-6z" fill="#fe9d0b"/><path d="m40 25c-.341 0-.674.035-1 .09 2.834.478 5 2.941 5 5.91s-2.166 5.432-5 5.91c.326.055.659.09 1 .09 3.31 0 6-2.69 6-6s-2.69-6-6-6z" fill="#e21e01"/><path d="m35 43c-.341 0-.674.035-1 .09 2.834.478 5 2.941 5 5.91s-2.166 5.432-5 5.91c.326.055.659.09 1 .09 3.31 0 6-2.69 6-6s-2.69-6-6-6z" fill="#e21e01"/><path d="m15 43c-.341 0-.674.035-1 .09 2.834.478 5 2.941 5 5.91s-2.166 5.432-5 5.91c.326.055.659.09 1 .09 3.31 0 6-2.69 6-6s-2.69-6-6-6z" fill="#e21e01"/><path d="m25 31c-.341 0-.674.035-1 .09 2.834.478 5 2.941 5 5.91s-2.166 5.432-5 5.91c.326.055.659.09 1 .09 3.31 0 6-2.69 6-6s-2.69-6-6-6z" fill="#fe9d0b"/><path d="m47 6c-.341 0-.674.035-1 .09 2.834.478 5 2.941 5 5.91s-2.166 5.432-5 5.91c.326.055.659.09 1 .09 3.31 0 6-2.69 6-6s-2.69-6-6-6z" fill="#fe9d0b"/><path d="m54 21c-.341 0-.674.035-1 .09 2.834.478 5 2.941 5 5.91s-2.166 5.432-5 5.91c.326.055.659.09 1 .09 3.31 0 6-2.69 6-6s-2.69-6-6-6z" fill="#e21e01"/><g><path d="m59 60h-54c-.552 0-1-.447-1-1v-54c0-.552.448-1 1-1s1 .448 1 1v53h53c.552 0 1 .447 1 1s-.448 1-1 1zm-38-11c0-3.309-2.691-6-6-6s-6 2.691-6 6 2.691 6 6 6 6-2.691 6-6zm-2 0c0 2.206-1.794 4-4 4s-4-1.794-4-4 1.794-4 4-4 4 1.794 4 4zm12-12c0-3.309-2.691-6-6-6s-6 2.691-6 6 2.691 6 6 6 6-2.691 6-6zm-2 0c0 2.206-1.794 4-4 4s-4-1.794-4-4 1.794-4 4-4 4 1.794 4 4zm12 12c0-3.309-2.691-6-6-6s-6 2.691-6 6 2.691 6 6 6 6-2.691 6-6zm-2 0c0 2.206-1.794 4-4 4s-4-1.794-4-4 1.794-4 4-4 4 1.794 4 4zm-6-26c0-3.309-2.691-6-6-6s-6 2.691-6 6 2.691 6 6 6 6-2.691 6-6zm-2 0c0 2.206-1.794 4-4 4s-4-1.794-4-4 1.794-4 4-4 4 1.794 4 4zm15 8c0-3.309-2.691-6-6-6s-6 2.691-6 6 2.691 6 6 6 6-2.691 6-6zm-2 0c0 2.206-1.794 4-4 4s-4-1.794-4-4 1.794-4 4-4 4 1.794 4 4zm16-4c0-3.309-2.691-6-6-6s-6 2.691-6 6 2.691 6 6 6 6-2.691 6-6zm-2 0c0 2.206-1.794 4-4 4s-4-1.794-4-4 1.794-4 4-4 4 1.794 4 4zm-3 16c0-3.309-2.691-6-6-6s-6 2.691-6 6 2.691 6 6 6 6-2.691 6-6zm-2 0c0 2.206-1.794 4-4 4s-4-1.794-4-4 1.794-4 4-4 4 1.794 4 4zm0-31c0-3.309-2.691-6-6-6s-6 2.691-6 6 2.691 6 6 6 6-2.691 6-6zm-2 0c0 2.206-1.794 4-4 4s-4-1.794-4-4 1.794-4 4-4 4 1.794 4 4z"/></g></g></svg>