<svg id="Capa_1" enable-background="new 0 0 511.732 511.732" height="512" viewBox="0 0 511.732 511.732" width="512" xmlns="http://www.w3.org/2000/svg"><g><g><path d="m410.553 212.324-3.172-18.14c-.019-.106-.042-.212-.069-.317l-4.619-17.823c-13.89-46.37-42.13-89.36-85.11-121.77l-59.587-44.935c-1.439-1.086-3.425-1.083-4.861.006l-59.062 44.789c-74.46 56.46-104.47 144.65-91.95 227.02l4.134 21.009c.024.121.053.24.088.358l6.038 20.543c17.12 49.98 51.01 95.08 101.26 125.87l21.658 13.269c.559-1.51.963-2.568 1.028-2.655.248-.331 7.859 3.888 7.859 3.888l16.96 5.543 7.383-1.156 29.982-18.369c86.2-52.82 124.29-147.69 112.04-237.13z" fill="#d8efa7"/><g><path d="m167.777 342.271-6.038-20.543c-.035-.118-.064-.238-.088-.358l-4.134-21.009c-12.52-82.37 17.49-170.56 91.95-227.02l46.569-35.315-38.04-28.687c-1.439-1.086-3.425-1.083-4.861.006l-59.062 44.789c-74.46 56.46-104.47 144.65-91.95 227.02l4.134 21.009c.024.121.053.24.088.358l6.038 20.543c17.12 49.98 51.01 95.08 101.26 125.87l33.51 20.53c5.74 3.52 12.96 3.52 18.7 0l2.678-1.641c-49.969-30.782-83.692-75.742-100.754-125.552z" fill="#c5e97d"/><circle cx="407.349" cy="194.022" fill="#e17983" r="18.593"/><circle cx="106.29" cy="302.348" fill="#f9de58" r="21.602"/></g></g><g><path d="m503.336 89.556c4.143 0 7.5-3.357 7.5-7.5s-3.357-7.5-7.5-7.5h-60.83c-6.576 0-12.322 4.446-13.973 10.814l-21.017 81.107c-15.727-47.066-45.132-87.812-85.42-118.194l-62.018-46.771c-2.679-2.021-6.373-2.015-9.047.012l-61.494 46.632c-14.777 11.206-28.247 23.963-40.035 37.917-2.673 3.164-2.274 7.896.89 10.569 3.166 2.674 7.897 2.274 10.569-.89 4.115-4.872 8.451-9.587 12.987-14.132l74.115 29.264v80.887l-118.783-46.9c3.86-8.106 8.198-16.008 13.022-23.652 2.211-3.503 1.164-8.135-2.339-10.346-3.503-2.21-8.135-1.162-10.345 2.34-30.393 48.156-42.997 105.746-35.774 162.835-9.836 4.674-16.654 14.704-16.654 26.299 0 8.752 3.889 16.608 10.023 21.947l-38.864 68.377h-39.953c-4.142 0-7.5 3.357-7.5 7.5s3.358 7.5 7.5 7.5h44.293c.005 0 .01.001.015.001s.01-.001.015-.001h37.044c4.142 0 7.5-3.357 7.5-7.5s-3.358-7.5-7.5-7.5h-24.162l35.106-61.766c1.808.353 3.673.543 5.582.543.38 0 .756-.014 1.132-.029 13.357 35.929 35.108 68.459 63.203 94.381 1.442 1.331 3.265 1.988 5.084 1.988 2.021 0 4.036-.812 5.514-2.414 2.809-3.044 2.618-7.789-.426-10.598-17.997-16.607-33.207-36.114-45.05-57.543l112.316 44.677v59.314l-30.502-18.69c-4.229-2.592-8.482-5.388-12.64-8.31-3.389-2.383-8.067-1.564-10.449 1.825-2.381 3.389-1.564 8.066 1.825 10.448 4.414 3.102 8.931 6.07 13.427 8.825l33.511 20.534c1.547.948 3.166 1.715 4.829 2.305v26.068c0 4.143 3.358 7.5 7.5 7.5s7.5-3.357 7.5-7.5v-25.489c2.323-.626 4.583-1.583 6.708-2.885l32.66-20.012c42.491-26.034 75.637-63.428 95.854-108.137 18.421-40.735 25.45-85.627 20.461-130.22 8.692-4.239 14.696-13.165 14.696-23.468 0-9.156-4.745-17.22-11.9-21.878l21.401-82.588h60.393zm-93.727 115.327c-.024.003-.047.003-.07.006-.072.01-.14.028-.211.04-.643.116-1.302.187-1.977.187-6.117 0-11.094-4.977-11.094-11.094 0-6.116 4.977-11.093 11.094-11.093 6.116 0 11.093 4.977 11.093 11.093-.002 5.343-3.799 9.814-8.835 10.861zm-26.945-59.941-119.6 47.223v-80.887l74.767-29.521c18.532 18.491 33.631 39.778 44.833 63.185zm-57.019-74.5-62.582 24.71v-72.601l50.002 37.709c4.332 3.266 8.52 6.667 12.58 10.182zm-139.542-.149c4.046-3.522 8.205-6.931 12.497-10.186l49.463-37.507v72.158zm61.96 137.604v80.888l-140.932-55.646c1.251-25.633 6.707-50.817 16.141-74.515zm-141.773 80.349c7.775 0 14.101 6.326 14.101 14.102s-6.326 14.102-14.101 14.102-14.102-6.326-14.102-14.102 6.327-14.102 14.102-14.102zm19.613 48.931c-1.454-3.367-2.849-6.762-4.141-10.2 8.179-5.157 13.629-14.266 13.629-24.63 0-15.259-11.807-27.804-26.763-29-.991-8.059-1.57-16.127-1.727-24.173l141.163 55.737v80.857zm168.693 105.88-31.532 19.321v-60.058l113.576-44.844c-19.21 34.925-47.296 64.289-82.044 85.581zm91.798-105.559-123.331 48.697v-80.887l63.51-25.077c3.853-1.521 5.742-5.877 4.221-9.73s-5.875-5.744-9.73-4.221l-58 22.902v-80.888l125.626-49.603c1.739 4.345 3.348 8.754 4.827 13.223-7.357 4.619-12.261 12.8-12.261 22.109 0 13.225 9.893 24.176 22.664 25.861.48 4.418.839 8.839 1.069 13.258l-54.15 21.381c-3.853 1.521-5.742 5.877-4.221 9.73 1.164 2.948 3.988 4.747 6.978 4.747.916 0 1.849-.169 2.753-.526l48.927-19.319c-.487 30.366-6.855 60.347-18.882 88.343z"/><path d="m503.336 109.656h-45.259c-4.143 0-7.5 3.357-7.5 7.5s3.357 7.5 7.5 7.5h45.259c4.143 0 7.5-3.357 7.5-7.5s-3.357-7.5-7.5-7.5z"/><path d="m503.336 144.758h-45.259c-4.143 0-7.5 3.357-7.5 7.5s3.357 7.5 7.5 7.5h45.259c4.143 0 7.5-3.357 7.5-7.5s-3.357-7.5-7.5-7.5z"/><path d="m89.764 432.235h-81.368c-4.142 0-7.5 3.357-7.5 7.5s3.358 7.5 7.5 7.5h81.367c4.142 0 7.5-3.357 7.5-7.5s-3.357-7.5-7.499-7.5z"/></g></g></svg>